# Procedural Colin-style simulation prop, dimensions in meters
v -0.0284078 -0.0303500 0.1005270
v -0.0288520 -0.0303500 0.0988270
v -0.0244032 -0.0303500 0.1000321
v -0.0284078 -0.0303500 0.1005270
v -0.0244032 -0.0303500 0.1000321
v -0.0276734 -0.0303500 0.1021047
v -0.0276734 -0.0303500 0.1021047
v -0.0244032 -0.0303500 0.1000321
v -0.0266613 -0.0303500 0.1035377
v -0.0266613 -0.0303500 0.1035377
v -0.0244032 -0.0303500 0.1000321
v -0.0231881 -0.0303500 0.1021139
v -0.0266613 -0.0303500 0.1035377
v -0.0231881 -0.0303500 0.1021139
v -0.0251592 -0.0303500 0.1049533
v -0.0251592 -0.0303500 0.1049533
v -0.0231881 -0.0303500 0.1021139
v -0.0233811 -0.0303500 0.1059996
v -0.0233811 -0.0303500 0.1059996
v -0.0231881 -0.0303500 0.1021139
v -0.0213700 -0.0303500 0.1035011
v -0.0233811 -0.0303500 0.1059996
v -0.0213700 -0.0303500 0.1035011
v -0.0213875 -0.0303500 0.1066483
v -0.0213875 -0.0303500 0.1066483
v -0.0213700 -0.0303500 0.1035011
v -0.0191627 -0.0303500 0.1039636
v -0.0213875 -0.0303500 0.1066483
v -0.0191627 -0.0303500 0.1039636
v -0.0192459 -0.0303500 0.1068645
v -0.0192459 -0.0303500 0.1068645
v -0.0191627 -0.0303500 0.1039636
v -0.0180391 -0.0303500 0.1067930
v -0.0180391 -0.0303500 0.1067930
v -0.0191627 -0.0303500 0.1039636
v -0.0180474 -0.0303500 0.1038754
v -0.0180391 -0.0303500 0.1067930
v -0.0180474 -0.0303500 0.1038754
v -0.0168273 -0.0303500 0.1065784
v -0.0168273 -0.0303500 0.1065784
v -0.0180474 -0.0303500 0.1038754
v -0.0170036 -0.0303500 0.1036109
v -0.0168273 -0.0303500 0.1065784
v -0.0170036 -0.0303500 0.1036109
v -0.0155997 -0.0303500 0.1062183
v -0.0155997 -0.0303500 0.1062183
v -0.0170036 -0.0303500 0.1036109
v -0.0159956 -0.0303500 0.1031568
v -0.0155997 -0.0303500 0.1062183
v -0.0159956 -0.0303500 0.1031568
v -0.0143522 -0.0303500 0.1057101
v -0.0143522 -0.0303500 0.1057101
v -0.0159956 -0.0303500 0.1031568
v -0.0149942 -0.0303500 0.1024998
v -0.0221269 -0.0303500 0.0907596
v -0.0209084 -0.0303500 0.0908253
v -0.0210556 -0.0303500 0.0936605
v -0.0221269 -0.0303500 0.0907596
v -0.0210556 -0.0303500 0.0936605
v -0.0226226 -0.0303500 0.0939150
v -0.0221269 -0.0303500 0.0907596
v -0.0226226 -0.0303500 0.0939150
v -0.0249430 -0.0303500 0.0911887
v -0.0249430 -0.0303500 0.0911887
v -0.0226226 -0.0303500 0.0939150
v -0.0238102 -0.0303500 0.0946785
v -0.0249430 -0.0303500 0.0911887
v -0.0238102 -0.0303500 0.0946785
v -0.0271303 -0.0303500 0.0924762
v -0.0271303 -0.0303500 0.0924762
v -0.0238102 -0.0303500 0.0946785
v -0.0245587 -0.0303500 0.0958911
v -0.0271303 -0.0303500 0.0924762
v -0.0245587 -0.0303500 0.0958911
v -0.0285326 -0.0303500 0.0944706
v -0.0285326 -0.0303500 0.0944706
v -0.0245587 -0.0303500 0.0958911
v -0.0290000 -0.0303500 0.0970206
v -0.0290000 -0.0303500 0.0970206
v -0.0245587 -0.0303500 0.0958911
v -0.0248083 -0.0303500 0.0974863
v -0.0290000 -0.0303500 0.0970206
v -0.0248083 -0.0303500 0.0974863
v -0.0288520 -0.0303500 0.0988270
v -0.0288520 -0.0303500 0.0988270
v -0.0248083 -0.0303500 0.0974863
v -0.0244032 -0.0303500 0.1000321
v -0.0161819 -0.0303500 0.0952308
v -0.0175750 -0.0303500 0.0945271
v -0.0168672 -0.0303500 0.0917909
v -0.0168672 -0.0303500 0.0917909
v -0.0175750 -0.0303500 0.0945271
v -0.0188267 -0.0303500 0.0940398
v -0.0168672 -0.0303500 0.0917909
v -0.0188267 -0.0303500 0.0940398
v -0.0182728 -0.0303500 0.0913442
v -0.0182728 -0.0303500 0.0913442
v -0.0188267 -0.0303500 0.0940398
v -0.0199744 -0.0303500 0.0937553
v -0.0182728 -0.0303500 0.0913442
v -0.0199744 -0.0303500 0.0937553
v -0.0196218 -0.0303500 0.0910224
v -0.0196218 -0.0303500 0.0910224
v -0.0199744 -0.0303500 0.0937553
v -0.0210556 -0.0303500 0.0936605
v -0.0196218 -0.0303500 0.0910224
v -0.0210556 -0.0303500 0.0936605
v -0.0209084 -0.0303500 0.0908253
v -0.0128955 -0.0303500 0.0982382
v -0.0132547 -0.0303500 0.0969732
v -0.0092418 -0.0303500 0.0975262
v -0.0128955 -0.0303500 0.0982382
v -0.0092418 -0.0303500 0.0975262
v -0.0123124 -0.0303500 0.0994391
v -0.0123124 -0.0303500 0.0994391
v -0.0092418 -0.0303500 0.0975262
v -0.0115215 -0.0303500 0.1005336
v -0.0115215 -0.0303500 0.1005336
v -0.0092418 -0.0303500 0.0975262
v -0.0085407 -0.0303500 0.0990133
v -0.0115215 -0.0303500 0.1005336
v -0.0085407 -0.0303500 0.0990133
v -0.0103829 -0.0303500 0.1015924
v -0.0103829 -0.0303500 0.1015924
v -0.0085407 -0.0303500 0.0990133
v -0.0074761 -0.0303500 0.0999964
v -0.0103829 -0.0303500 0.1015924
v -0.0074761 -0.0303500 0.0999964
v -0.0090430 -0.0303500 0.1023601
v -0.0090430 -0.0303500 0.1023601
v -0.0074761 -0.0303500 0.0999964
v -0.0075260 -0.0303500 0.1028291
v -0.0075260 -0.0303500 0.1028291
v -0.0074761 -0.0303500 0.0999964
v -0.0061587 -0.0303500 0.1003241
v -0.0075260 -0.0303500 0.1028291
v -0.0061587 -0.0303500 0.1003241
v -0.0058560 -0.0303500 0.1029855
v -0.0058560 -0.0303500 0.1029855
v -0.0061587 -0.0303500 0.1003241
v -0.0053071 -0.0303500 0.1001810
v -0.0058560 -0.0303500 0.1029855
v -0.0053071 -0.0303500 0.1001810
v -0.0035355 -0.0303500 0.1026553
v -0.0035355 -0.0303500 0.1026553
v -0.0053071 -0.0303500 0.1001810
v -0.0046883 -0.0303500 0.0997519
v -0.0035355 -0.0303500 0.1026553
v -0.0046883 -0.0303500 0.0997519
v -0.0017707 -0.0303500 0.1016648
v -0.0017707 -0.0303500 0.1016648
v -0.0046883 -0.0303500 0.0997519
v -0.0043090 -0.0303500 0.0990524
v -0.0017707 -0.0303500 0.1016648
v -0.0043090 -0.0303500 0.0990524
v -0.0006554 -0.0303500 0.1001070
v -0.0006554 -0.0303500 0.1001070
v -0.0043090 -0.0303500 0.0990524
v -0.0041826 -0.0303500 0.0980918
v -0.0006554 -0.0303500 0.1001070
v -0.0041826 -0.0303500 0.0980918
v -0.0002836 -0.0303500 0.0980685
v -0.0078421 -0.0303500 0.0907596
v -0.0061487 -0.0303500 0.0909151
v -0.0074994 -0.0303500 0.0934210
v -0.0078421 -0.0303500 0.0907596
v -0.0074994 -0.0303500 0.0934210
v -0.0083519 -0.0303500 0.0935649
v -0.0078421 -0.0303500 0.0907596
v -0.0083519 -0.0303500 0.0935649
v -0.0101392 -0.0303500 0.0910897
v -0.0101392 -0.0303500 0.0910897
v -0.0083519 -0.0303500 0.0935649
v -0.0089732 -0.0303500 0.0939965
v -0.0101392 -0.0303500 0.0910897
v -0.0089732 -0.0303500 0.0939965
v -0.0118941 -0.0303500 0.0920803
v -0.0118941 -0.0303500 0.0920803
v -0.0089732 -0.0303500 0.0939965
v -0.0093499 -0.0303500 0.0947068
v -0.0118941 -0.0303500 0.0920803
v -0.0093499 -0.0303500 0.0947068
v -0.0130044 -0.0303500 0.0936405
v -0.0130044 -0.0303500 0.0936405
v -0.0093499 -0.0303500 0.0947068
v -0.0094755 -0.0303500 0.0956799
v -0.0130044 -0.0303500 0.0936405
v -0.0094755 -0.0303500 0.0956799
v -0.0133745 -0.0303500 0.0956799
v -0.0133745 -0.0303500 0.0956799
v -0.0094755 -0.0303500 0.0956799
v -0.0132547 -0.0303500 0.0969732
v -0.0132547 -0.0303500 0.0969732
v -0.0094755 -0.0303500 0.0956799
v -0.0092418 -0.0303500 0.0975262
v -0.0041826 -0.0303500 0.0980918
v -0.0044171 -0.0303500 0.0962329
v -0.0004009 -0.0303500 0.0967677
v -0.0041826 -0.0303500 0.0980918
v -0.0004009 -0.0303500 0.0967677
v -0.0002836 -0.0303500 0.0980685
v -0.0004009 -0.0303500 0.0967677
v -0.0044171 -0.0303500 0.0962329
v -0.0007527 -0.0303500 0.0955069
v -0.0007527 -0.0303500 0.0955069
v -0.0044171 -0.0303500 0.0962329
v -0.0013274 -0.0303500 0.0943184
v -0.0013274 -0.0303500 0.0943184
v -0.0044171 -0.0303500 0.0962329
v -0.0021133 -0.0303500 0.0932347
v -0.0021133 -0.0303500 0.0932347
v -0.0044171 -0.0303500 0.0962329
v -0.0051208 -0.0303500 0.0947351
v -0.0021133 -0.0303500 0.0932347
v -0.0051208 -0.0303500 0.0947351
v -0.0032711 -0.0303500 0.0921576
v -0.0032711 -0.0303500 0.0921576
v -0.0051208 -0.0303500 0.0947351
v -0.0061828 -0.0303500 0.0937495
v -0.0032711 -0.0303500 0.0921576
v -0.0061828 -0.0303500 0.0937495
v -0.0046217 -0.0303500 0.0913817
v -0.0046217 -0.0303500 0.0913817
v -0.0061828 -0.0303500 0.0937495
v -0.0061487 -0.0303500 0.0909151
v -0.0061487 -0.0303500 0.0909151
v -0.0061828 -0.0303500 0.0937495
v -0.0074994 -0.0303500 0.0934210
v 0.0042803 -0.0303500 0.1072404
v 0.0011398 -0.0303500 0.0910623
v 0.0048725 -0.0303500 0.0910623
v 0.0042803 -0.0303500 0.1072404
v 0.0048725 -0.0303500 0.0910623
v 0.0080230 -0.0303500 0.1072404
v 0.0107035 -0.0303500 0.1027060
v 0.0084380 -0.0303500 0.0910623
v 0.0121706 -0.0303500 0.0910623
v 0.0107035 -0.0303500 0.1027060
v 0.0121706 -0.0303500 0.0910623
v 0.0144461 -0.0303500 0.1027060
v 0.0115785 -0.0303500 0.1072404
v 0.0109730 -0.0303500 0.1042031
v 0.0147289 -0.0303500 0.1042031
v 0.0115785 -0.0303500 0.1072404
v 0.0147289 -0.0303500 0.1042031
v 0.0153211 -0.0303500 0.1072404
v 0.0180016 -0.0303500 0.1027060
v 0.0157361 -0.0303500 0.0910623
v 0.0205899 -0.0303500 0.0967910
v 0.0180016 -0.0303500 0.1027060
v 0.0205899 -0.0303500 0.0967910
v 0.0210382 -0.0303500 0.0982082
v 0.0180016 -0.0303500 0.1027060
v 0.0210382 -0.0303500 0.0982082
v 0.0214016 -0.0303500 0.1010027
v 0.0180016 -0.0303500 0.1027060
v 0.0214016 -0.0303500 0.1010027
v 0.0217443 -0.0303500 0.1027060
v 0.0256433 -0.0303500 0.1029855
v 0.0245321 -0.0303500 0.1028632
v 0.0243192 -0.0303500 0.1000895
v 0.0256433 -0.0303500 0.1029855
v 0.0243192 -0.0303500 0.1000895
v 0.0247650 -0.0303500 0.0998151
v 0.0256433 -0.0303500 0.1029855
v 0.0247650 -0.0303500 0.0998151
v 0.0270688 -0.0303500 0.1027751
v 0.0270688 -0.0303500 0.1027751
v 0.0247650 -0.0303500 0.0998151
v 0.0281251 -0.0303500 0.1021438
v 0.0281251 -0.0303500 0.1021438
v 0.0247650 -0.0303500 0.0998151
v 0.0250420 -0.0303500 0.0993768
v 0.0281251 -0.0303500 0.1021438
v 0.0250420 -0.0303500 0.0993768
v 0.0287813 -0.0303500 0.1011308
v 0.0287813 -0.0303500 0.1011308
v 0.0250420 -0.0303500 0.0993768
v 0.0290000 -0.0303500 0.0997751
v 0.0237004 -0.0303500 0.0910623
v 0.0274331 -0.0303500 0.0910623
v 0.0248748 -0.0303500 0.0971337
v 0.0194688 -0.0303500 0.0910623
v 0.0205899 -0.0303500 0.0967910
v 0.0157361 -0.0303500 0.0910623
v 0.0210382 -0.0303500 0.0982082
v 0.0217376 -0.0303500 0.0992794
v 0.0214016 -0.0303500 0.1010027
v 0.0214016 -0.0303500 0.1010027
v 0.0217376 -0.0303500 0.0992794
v 0.0226475 -0.0303500 0.0999556
v 0.0214016 -0.0303500 0.1010027
v 0.0226475 -0.0303500 0.0999556
v 0.0224321 -0.0303500 0.1018802
v 0.0245321 -0.0303500 0.1028632
v 0.0234676 -0.0303500 0.1024965
v 0.0243192 -0.0303500 0.1000895
v 0.0243192 -0.0303500 0.1000895
v 0.0234676 -0.0303500 0.1024965
v 0.0237204 -0.0303500 0.1001810
v 0.0250420 -0.0303500 0.0993768
v 0.0251343 -0.0303500 0.0987871
v 0.0289534 -0.0303500 0.0990366
v 0.0250420 -0.0303500 0.0993768
v 0.0289534 -0.0303500 0.0990366
v 0.0289884 -0.0303500 0.0994242
v 0.0250420 -0.0303500 0.0993768
v 0.0289884 -0.0303500 0.0994242
v 0.0290000 -0.0303500 0.0997751
v 0.0289534 -0.0303500 0.0990366
v 0.0251343 -0.0303500 0.0987871
v 0.0288952 -0.0303500 0.0986124
v 0.0288952 -0.0303500 0.0986124
v 0.0251343 -0.0303500 0.0987871
v 0.0288137 -0.0303500 0.0981517
v 0.0288137 -0.0303500 0.0981517
v 0.0251343 -0.0303500 0.0987871
v 0.0251168 -0.0303500 0.0985043
v 0.0288137 -0.0303500 0.0981517
v 0.0251168 -0.0303500 0.0985043
v 0.0250644 -0.0303500 0.0981350
v 0.0288137 -0.0303500 0.0981517
v 0.0250644 -0.0303500 0.0981350
v 0.0249837 -0.0303500 0.0976801
v 0.0288137 -0.0303500 0.0981517
v 0.0249837 -0.0303500 0.0976801
v 0.0248748 -0.0303500 0.0971337
v 0.0288137 -0.0303500 0.0981517
v 0.0248748 -0.0303500 0.0971337
v 0.0274331 -0.0303500 0.0910623
v 0.0226475 -0.0303500 0.0999556
v 0.0237204 -0.0303500 0.1001810
v 0.0224321 -0.0303500 0.1018802
v 0.0224321 -0.0303500 0.1018802
v 0.0237204 -0.0303500 0.1001810
v 0.0234676 -0.0303500 0.1024965
f 1 2 3
f 3 2 1
f 4 5 6
f 6 5 4
f 7 8 9
f 9 8 7
f 10 11 12
f 12 11 10
f 13 14 15
f 15 14 13
f 16 17 18
f 18 17 16
f 19 20 21
f 21 20 19
f 22 23 24
f 24 23 22
f 25 26 27
f 27 26 25
f 28 29 30
f 30 29 28
f 31 32 33
f 33 32 31
f 34 35 36
f 36 35 34
f 37 38 39
f 39 38 37
f 40 41 42
f 42 41 40
f 43 44 45
f 45 44 43
f 46 47 48
f 48 47 46
f 49 50 51
f 51 50 49
f 52 53 54
f 54 53 52
f 55 56 57
f 57 56 55
f 58 59 60
f 60 59 58
f 61 62 63
f 63 62 61
f 64 65 66
f 66 65 64
f 67 68 69
f 69 68 67
f 70 71 72
f 72 71 70
f 73 74 75
f 75 74 73
f 76 77 78
f 78 77 76
f 79 80 81
f 81 80 79
f 82 83 84
f 84 83 82
f 85 86 87
f 87 86 85
f 88 89 90
f 90 89 88
f 91 92 93
f 93 92 91
f 94 95 96
f 96 95 94
f 97 98 99
f 99 98 97
f 100 101 102
f 102 101 100
f 103 104 105
f 105 104 103
f 106 107 108
f 108 107 106
f 109 110 111
f 111 110 109
f 112 113 114
f 114 113 112
f 115 116 117
f 117 116 115
f 118 119 120
f 120 119 118
f 121 122 123
f 123 122 121
f 124 125 126
f 126 125 124
f 127 128 129
f 129 128 127
f 130 131 132
f 132 131 130
f 133 134 135
f 135 134 133
f 136 137 138
f 138 137 136
f 139 140 141
f 141 140 139
f 142 143 144
f 144 143 142
f 145 146 147
f 147 146 145
f 148 149 150
f 150 149 148
f 151 152 153
f 153 152 151
f 154 155 156
f 156 155 154
f 157 158 159
f 159 158 157
f 160 161 162
f 162 161 160
f 163 164 165
f 165 164 163
f 166 167 168
f 168 167 166
f 169 170 171
f 171 170 169
f 172 173 174
f 174 173 172
f 175 176 177
f 177 176 175
f 178 179 180
f 180 179 178
f 181 182 183
f 183 182 181
f 184 185 186
f 186 185 184
f 187 188 189
f 189 188 187
f 190 191 192
f 192 191 190
f 193 194 195
f 195 194 193
f 196 197 198
f 198 197 196
f 199 200 201
f 201 200 199
f 202 203 204
f 204 203 202
f 205 206 207
f 207 206 205
f 208 209 210
f 210 209 208
f 211 212 213
f 213 212 211
f 214 215 216
f 216 215 214
f 217 218 219
f 219 218 217
f 220 221 222
f 222 221 220
f 223 224 225
f 225 224 223
f 226 227 228
f 228 227 226
f 229 230 231
f 231 230 229
f 232 233 234
f 234 233 232
f 235 236 237
f 237 236 235
f 238 239 240
f 240 239 238
f 241 242 243
f 243 242 241
f 244 245 246
f 246 245 244
f 247 248 249
f 249 248 247
f 250 251 252
f 252 251 250
f 253 254 255
f 255 254 253
f 256 257 258
f 258 257 256
f 259 260 261
f 261 260 259
f 262 263 264
f 264 263 262
f 265 266 267
f 267 266 265
f 268 269 270
f 270 269 268
f 271 272 273
f 273 272 271
f 274 275 276
f 276 275 274
f 277 278 279
f 279 278 277
f 280 281 282
f 282 281 280
f 283 284 285
f 285 284 283
f 286 287 288
f 288 287 286
f 289 290 291
f 291 290 289
f 292 293 294
f 294 293 292
f 295 296 297
f 297 296 295
f 298 299 300
f 300 299 298
f 301 302 303
f 303 302 301
f 304 305 306
f 306 305 304
f 307 308 309
f 309 308 307
f 310 311 312
f 312 311 310
f 313 314 315
f 315 314 313
f 316 317 318
f 318 317 316
f 319 320 321
f 321 320 319
f 322 323 324
f 324 323 322
f 325 326 327
f 327 326 325
f 328 329 330
f 330 329 328
f 331 332 333
f 333 332 331
f 334 335 336
f 336 335 334
