# Procedural Colin-style simulation prop, dimensions in meters
v 0.0330000 0.0000000 0.0000000
v 0.0328966 0.0050825 0.0000000
v 0.0325864 0.0079503 0.0000000
v 0.0320693 0.0102935 0.0000000
v 0.0313447 0.0123189 0.0000000
v 0.0304119 0.0141068 0.0000000
v 0.0292694 0.0156967 0.0000000
v 0.0279148 0.0171104 0.0000000
v 0.0263438 0.0183609 0.0000000
v 0.0245497 0.0194558 0.0000000
v 0.0225213 0.0203999 0.0000000
v 0.0202402 0.0211962 0.0000000
v 0.0176750 0.0218463 0.0000000
v 0.0147689 0.0223513 0.0000000
v 0.0114069 0.0227118 0.0000000
v 0.0072922 0.0229280 0.0000000
v 0.0000000 0.0230000 0.0000000
v -0.0072922 0.0229280 0.0000000
v -0.0114069 0.0227118 0.0000000
v -0.0147689 0.0223513 0.0000000
v -0.0176750 0.0218463 0.0000000
v -0.0202402 0.0211962 0.0000000
v -0.0225213 0.0203999 0.0000000
v -0.0245497 0.0194558 0.0000000
v -0.0263438 0.0183609 0.0000000
v -0.0279148 0.0171104 0.0000000
v -0.0292694 0.0156967 0.0000000
v -0.0304119 0.0141068 0.0000000
v -0.0313447 0.0123189 0.0000000
v -0.0320693 0.0102935 0.0000000
v -0.0325864 0.0079503 0.0000000
v -0.0328966 0.0050825 0.0000000
v -0.0330000 0.0000000 0.0000000
v -0.0328966 -0.0050825 0.0000000
v -0.0325864 -0.0079503 0.0000000
v -0.0320693 -0.0102935 0.0000000
v -0.0313447 -0.0123189 0.0000000
v -0.0304119 -0.0141068 0.0000000
v -0.0292694 -0.0156967 0.0000000
v -0.0279148 -0.0171104 0.0000000
v -0.0263438 -0.0183609 0.0000000
v -0.0245497 -0.0194558 0.0000000
v -0.0225213 -0.0203999 0.0000000
v -0.0202402 -0.0211962 0.0000000
v -0.0176750 -0.0218463 0.0000000
v -0.0147689 -0.0223513 0.0000000
v -0.0114069 -0.0227118 0.0000000
v -0.0072922 -0.0229280 0.0000000
v -0.0000000 -0.0230000 0.0000000
v 0.0072922 -0.0229280 0.0000000
v 0.0114069 -0.0227118 0.0000000
v 0.0147689 -0.0223513 0.0000000
v 0.0176750 -0.0218463 0.0000000
v 0.0202402 -0.0211962 0.0000000
v 0.0225213 -0.0203999 0.0000000
v 0.0245497 -0.0194558 0.0000000
v 0.0263438 -0.0183609 0.0000000
v 0.0279148 -0.0171104 0.0000000
v 0.0292694 -0.0156967 0.0000000
v 0.0304119 -0.0141068 0.0000000
v 0.0313447 -0.0123189 0.0000000
v 0.0320693 -0.0102935 0.0000000
v 0.0325864 -0.0079503 0.0000000
v 0.0328966 -0.0050825 0.0000000
v 0.0390000 0.0000000 0.0040000
v 0.0388778 0.0061873 0.0040000
v 0.0385113 0.0096786 0.0040000
v 0.0379000 0.0125312 0.0040000
v 0.0370437 0.0149970 0.0040000
v 0.0359413 0.0171735 0.0040000
v 0.0345911 0.0191090 0.0040000
v 0.0329902 0.0208301 0.0040000
v 0.0311336 0.0223524 0.0040000
v 0.0290133 0.0236853 0.0040000
v 0.0266161 0.0248347 0.0040000
v 0.0239203 0.0258040 0.0040000
v 0.0208887 0.0265955 0.0040000
v 0.0174542 0.0272103 0.0040000
v 0.0134809 0.0276491 0.0040000
v 0.0086181 0.0279123 0.0040000
v 0.0000000 0.0280000 0.0040000
v -0.0086181 0.0279123 0.0040000
v -0.0134809 0.0276491 0.0040000
v -0.0174542 0.0272103 0.0040000
v -0.0208887 0.0265955 0.0040000
v -0.0239203 0.0258040 0.0040000
v -0.0266161 0.0248347 0.0040000
v -0.0290133 0.0236853 0.0040000
v -0.0311336 0.0223524 0.0040000
v -0.0329902 0.0208301 0.0040000
v -0.0345911 0.0191090 0.0040000
v -0.0359413 0.0171735 0.0040000
v -0.0370437 0.0149970 0.0040000
v -0.0379000 0.0125312 0.0040000
v -0.0385113 0.0096786 0.0040000
v -0.0388778 0.0061873 0.0040000
v -0.0390000 0.0000000 0.0040000
v -0.0388778 -0.0061873 0.0040000
v -0.0385113 -0.0096786 0.0040000
v -0.0379000 -0.0125312 0.0040000
v -0.0370437 -0.0149970 0.0040000
v -0.0359413 -0.0171735 0.0040000
v -0.0345911 -0.0191090 0.0040000
v -0.0329902 -0.0208301 0.0040000
v -0.0311336 -0.0223524 0.0040000
v -0.0290133 -0.0236853 0.0040000
v -0.0266161 -0.0248347 0.0040000
v -0.0239203 -0.0258040 0.0040000
v -0.0208887 -0.0265955 0.0040000
v -0.0174542 -0.0272103 0.0040000
v -0.0134809 -0.0276491 0.0040000
v -0.0086181 -0.0279123 0.0040000
v -0.0000000 -0.0280000 0.0040000
v 0.0086181 -0.0279123 0.0040000
v 0.0134809 -0.0276491 0.0040000
v 0.0174542 -0.0272103 0.0040000
v 0.0208887 -0.0265955 0.0040000
v 0.0239203 -0.0258040 0.0040000
v 0.0266161 -0.0248347 0.0040000
v 0.0290133 -0.0236853 0.0040000
v 0.0311336 -0.0223524 0.0040000
v 0.0329902 -0.0208301 0.0040000
v 0.0345911 -0.0191090 0.0040000
v 0.0359413 -0.0171735 0.0040000
v 0.0370437 -0.0149970 0.0040000
v 0.0379000 -0.0125312 0.0040000
v 0.0385113 -0.0096786 0.0040000
v 0.0388778 -0.0061873 0.0040000
v 0.0420000 0.0000000 0.0120000
v 0.0418684 0.0064083 0.0120000
v 0.0414737 0.0100242 0.0120000
v 0.0408154 0.0129788 0.0120000
v 0.0398932 0.0155326 0.0120000
v 0.0387060 0.0177869 0.0120000
v 0.0372520 0.0197915 0.0120000
v 0.0355279 0.0215740 0.0120000
v 0.0335285 0.0231507 0.0120000
v 0.0312451 0.0245312 0.0120000
v 0.0286635 0.0257216 0.0120000
v 0.0257603 0.0267256 0.0120000
v 0.0224955 0.0275453 0.0120000
v 0.0187968 0.0281821 0.0120000
v 0.0145179 0.0286366 0.0120000
v 0.0092810 0.0289092 0.0120000
v 0.0000000 0.0290000 0.0120000
v -0.0092810 0.0289092 0.0120000
v -0.0145179 0.0286366 0.0120000
v -0.0187968 0.0281821 0.0120000
v -0.0224955 0.0275453 0.0120000
v -0.0257603 0.0267256 0.0120000
v -0.0286635 0.0257216 0.0120000
v -0.0312451 0.0245312 0.0120000
v -0.0335285 0.0231507 0.0120000
v -0.0355279 0.0215740 0.0120000
v -0.0372520 0.0197915 0.0120000
v -0.0387060 0.0177869 0.0120000
v -0.0398932 0.0155326 0.0120000
v -0.0408154 0.0129788 0.0120000
v -0.0414737 0.0100242 0.0120000
v -0.0418684 0.0064083 0.0120000
v -0.0420000 0.0000000 0.0120000
v -0.0418684 -0.0064083 0.0120000
v -0.0414737 -0.0100242 0.0120000
v -0.0408154 -0.0129788 0.0120000
v -0.0398932 -0.0155326 0.0120000
v -0.0387060 -0.0177869 0.0120000
v -0.0372520 -0.0197915 0.0120000
v -0.0355279 -0.0215740 0.0120000
v -0.0335285 -0.0231507 0.0120000
v -0.0312451 -0.0245312 0.0120000
v -0.0286635 -0.0257216 0.0120000
v -0.0257603 -0.0267256 0.0120000
v -0.0224955 -0.0275453 0.0120000
v -0.0187968 -0.0281821 0.0120000
v -0.0145179 -0.0286366 0.0120000
v -0.0092810 -0.0289092 0.0120000
v -0.0000000 -0.0290000 0.0120000
v 0.0092810 -0.0289092 0.0120000
v 0.0145179 -0.0286366 0.0120000
v 0.0187968 -0.0281821 0.0120000
v 0.0224955 -0.0275453 0.0120000
v 0.0257603 -0.0267256 0.0120000
v 0.0286635 -0.0257216 0.0120000
v 0.0312451 -0.0245312 0.0120000
v 0.0335285 -0.0231507 0.0120000
v 0.0355279 -0.0215740 0.0120000
v 0.0372520 -0.0197915 0.0120000
v 0.0387060 -0.0177869 0.0120000
v 0.0398932 -0.0155326 0.0120000
v 0.0408154 -0.0129788 0.0120000
v 0.0414737 -0.0100242 0.0120000
v 0.0418684 -0.0064083 0.0120000
v 0.0430000 0.0000000 0.0400000
v 0.0428653 0.0064083 0.0400000
v 0.0424611 0.0100242 0.0400000
v 0.0417872 0.0129788 0.0400000
v 0.0408431 0.0155326 0.0400000
v 0.0396276 0.0177869 0.0400000
v 0.0381389 0.0197915 0.0400000
v 0.0363738 0.0215740 0.0400000
v 0.0343268 0.0231507 0.0400000
v 0.0319891 0.0245312 0.0400000
v 0.0293460 0.0257216 0.0400000
v 0.0263736 0.0267256 0.0400000
v 0.0230311 0.0275453 0.0400000
v 0.0192444 0.0281821 0.0400000
v 0.0148635 0.0286366 0.0400000
v 0.0095020 0.0289092 0.0400000
v 0.0000000 0.0290000 0.0400000
v -0.0095020 0.0289092 0.0400000
v -0.0148635 0.0286366 0.0400000
v -0.0192444 0.0281821 0.0400000
v -0.0230311 0.0275453 0.0400000
v -0.0263736 0.0267256 0.0400000
v -0.0293460 0.0257216 0.0400000
v -0.0319891 0.0245312 0.0400000
v -0.0343268 0.0231507 0.0400000
v -0.0363738 0.0215740 0.0400000
v -0.0381389 0.0197915 0.0400000
v -0.0396276 0.0177869 0.0400000
v -0.0408431 0.0155326 0.0400000
v -0.0417872 0.0129788 0.0400000
v -0.0424611 0.0100242 0.0400000
v -0.0428653 0.0064083 0.0400000
v -0.0430000 0.0000000 0.0400000
v -0.0428653 -0.0064083 0.0400000
v -0.0424611 -0.0100242 0.0400000
v -0.0417872 -0.0129788 0.0400000
v -0.0408431 -0.0155326 0.0400000
v -0.0396276 -0.0177869 0.0400000
v -0.0381389 -0.0197915 0.0400000
v -0.0363738 -0.0215740 0.0400000
v -0.0343268 -0.0231507 0.0400000
v -0.0319891 -0.0245312 0.0400000
v -0.0293460 -0.0257216 0.0400000
v -0.0263736 -0.0267256 0.0400000
v -0.0230311 -0.0275453 0.0400000
v -0.0192444 -0.0281821 0.0400000
v -0.0148635 -0.0286366 0.0400000
v -0.0095020 -0.0289092 0.0400000
v -0.0000000 -0.0290000 0.0400000
v 0.0095020 -0.0289092 0.0400000
v 0.0148635 -0.0286366 0.0400000
v 0.0192444 -0.0281821 0.0400000
v 0.0230311 -0.0275453 0.0400000
v 0.0263736 -0.0267256 0.0400000
v 0.0293460 -0.0257216 0.0400000
v 0.0319891 -0.0245312 0.0400000
v 0.0343268 -0.0231507 0.0400000
v 0.0363738 -0.0215740 0.0400000
v 0.0381389 -0.0197915 0.0400000
v 0.0396276 -0.0177869 0.0400000
v 0.0408431 -0.0155326 0.0400000
v 0.0417872 -0.0129788 0.0400000
v 0.0424611 -0.0100242 0.0400000
v 0.0428653 -0.0064083 0.0400000
v 0.0410000 0.0000000 0.0900000
v 0.0408716 0.0061873 0.0900000
v 0.0404862 0.0096786 0.0900000
v 0.0398436 0.0125312 0.0900000
v 0.0389434 0.0149970 0.0900000
v 0.0377845 0.0171735 0.0900000
v 0.0363650 0.0191090 0.0900000
v 0.0346820 0.0208301 0.0900000
v 0.0327302 0.0223524 0.0900000
v 0.0305012 0.0236853 0.0900000
v 0.0279811 0.0248347 0.0900000
v 0.0251469 0.0258040 0.0900000
v 0.0219599 0.0265955 0.0900000
v 0.0183493 0.0272103 0.0900000
v 0.0141722 0.0276491 0.0900000
v 0.0090600 0.0279123 0.0900000
v 0.0000000 0.0280000 0.0900000
v -0.0090600 0.0279123 0.0900000
v -0.0141722 0.0276491 0.0900000
v -0.0183493 0.0272103 0.0900000
v -0.0219599 0.0265955 0.0900000
v -0.0251469 0.0258040 0.0900000
v -0.0279811 0.0248347 0.0900000
v -0.0305012 0.0236853 0.0900000
v -0.0327302 0.0223524 0.0900000
v -0.0346820 0.0208301 0.0900000
v -0.0363650 0.0191090 0.0900000
v -0.0377845 0.0171735 0.0900000
v -0.0389434 0.0149970 0.0900000
v -0.0398436 0.0125312 0.0900000
v -0.0404862 0.0096786 0.0900000
v -0.0408716 0.0061873 0.0900000
v -0.0410000 0.0000000 0.0900000
v -0.0408716 -0.0061873 0.0900000
v -0.0404862 -0.0096786 0.0900000
v -0.0398436 -0.0125312 0.0900000
v -0.0389434 -0.0149970 0.0900000
v -0.0377845 -0.0171735 0.0900000
v -0.0363650 -0.0191090 0.0900000
v -0.0346820 -0.0208301 0.0900000
v -0.0327302 -0.0223524 0.0900000
v -0.0305012 -0.0236853 0.0900000
v -0.0279811 -0.0248347 0.0900000
v -0.0251469 -0.0258040 0.0900000
v -0.0219599 -0.0265955 0.0900000
v -0.0183493 -0.0272103 0.0900000
v -0.0141722 -0.0276491 0.0900000
v -0.0090600 -0.0279123 0.0900000
v -0.0000000 -0.0280000 0.0900000
v 0.0090600 -0.0279123 0.0900000
v 0.0141722 -0.0276491 0.0900000
v 0.0183493 -0.0272103 0.0900000
v 0.0219599 -0.0265955 0.0900000
v 0.0251469 -0.0258040 0.0900000
v 0.0279811 -0.0248347 0.0900000
v 0.0305012 -0.0236853 0.0900000
v 0.0327302 -0.0223524 0.0900000
v 0.0346820 -0.0208301 0.0900000
v 0.0363650 -0.0191090 0.0900000
v 0.0377845 -0.0171735 0.0900000
v 0.0389434 -0.0149970 0.0900000
v 0.0398436 -0.0125312 0.0900000
v 0.0404862 -0.0096786 0.0900000
v 0.0408716 -0.0061873 0.0900000
v 0.0380000 0.0000000 0.1250000
v 0.0378810 0.0057454 0.1250000
v 0.0375238 0.0089872 0.1250000
v 0.0369283 0.0116361 0.1250000
v 0.0360939 0.0139258 0.1250000
v 0.0350197 0.0159468 0.1250000
v 0.0337042 0.0177441 0.1250000
v 0.0321443 0.0193422 0.1250000
v 0.0303353 0.0207558 0.1250000
v 0.0282694 0.0219935 0.1250000
v 0.0259337 0.0230608 0.1250000
v 0.0233069 0.0239609 0.1250000
v 0.0203530 0.0246958 0.1250000
v 0.0170067 0.0252667 0.1250000
v 0.0131352 0.0256742 0.1250000
v 0.0083971 0.0259186 0.1250000
v 0.0000000 0.0260000 0.1250000
v -0.0083971 0.0259186 0.1250000
v -0.0131352 0.0256742 0.1250000
v -0.0170067 0.0252667 0.1250000
v -0.0203530 0.0246958 0.1250000
v -0.0233069 0.0239609 0.1250000
v -0.0259337 0.0230608 0.1250000
v -0.0282694 0.0219935 0.1250000
v -0.0303353 0.0207558 0.1250000
v -0.0321443 0.0193422 0.1250000
v -0.0337042 0.0177441 0.1250000
v -0.0350197 0.0159468 0.1250000
v -0.0360939 0.0139258 0.1250000
v -0.0369283 0.0116361 0.1250000
v -0.0375238 0.0089872 0.1250000
v -0.0378810 0.0057454 0.1250000
v -0.0380000 0.0000000 0.1250000
v -0.0378810 -0.0057454 0.1250000
v -0.0375238 -0.0089872 0.1250000
v -0.0369283 -0.0116361 0.1250000
v -0.0360939 -0.0139258 0.1250000
v -0.0350197 -0.0159468 0.1250000
v -0.0337042 -0.0177441 0.1250000
v -0.0321443 -0.0193422 0.1250000
v -0.0303353 -0.0207558 0.1250000
v -0.0282694 -0.0219935 0.1250000
v -0.0259337 -0.0230608 0.1250000
v -0.0233069 -0.0239609 0.1250000
v -0.0203530 -0.0246958 0.1250000
v -0.0170067 -0.0252667 0.1250000
v -0.0131352 -0.0256742 0.1250000
v -0.0083971 -0.0259186 0.1250000
v -0.0000000 -0.0260000 0.1250000
v 0.0083971 -0.0259186 0.1250000
v 0.0131352 -0.0256742 0.1250000
v 0.0170067 -0.0252667 0.1250000
v 0.0203530 -0.0246958 0.1250000
v 0.0233069 -0.0239609 0.1250000
v 0.0259337 -0.0230608 0.1250000
v 0.0282694 -0.0219935 0.1250000
v 0.0303353 -0.0207558 0.1250000
v 0.0321443 -0.0193422 0.1250000
v 0.0337042 -0.0177441 0.1250000
v 0.0350197 -0.0159468 0.1250000
v 0.0360939 -0.0139258 0.1250000
v 0.0369283 -0.0116361 0.1250000
v 0.0375238 -0.0089872 0.1250000
v 0.0378810 -0.0057454 0.1250000
v 0.0320000 0.0000000 0.1450000
v 0.0318998 0.0050825 0.1450000
v 0.0315990 0.0079503 0.1450000
v 0.0310975 0.0102935 0.1450000
v 0.0303948 0.0123189 0.1450000
v 0.0294903 0.0141068 0.1450000
v 0.0283825 0.0156967 0.1450000
v 0.0270689 0.0171104 0.1450000
v 0.0255455 0.0183609 0.1450000
v 0.0238058 0.0194558 0.1450000
v 0.0218389 0.0203999 0.1450000
v 0.0196269 0.0211962 0.1450000
v 0.0171394 0.0218463 0.1450000
v 0.0143214 0.0223513 0.1450000
v 0.0110612 0.0227118 0.1450000
v 0.0070713 0.0229280 0.1450000
v 0.0000000 0.0230000 0.1450000
v -0.0070713 0.0229280 0.1450000
v -0.0110612 0.0227118 0.1450000
v -0.0143214 0.0223513 0.1450000
v -0.0171394 0.0218463 0.1450000
v -0.0196269 0.0211962 0.1450000
v -0.0218389 0.0203999 0.1450000
v -0.0238058 0.0194558 0.1450000
v -0.0255455 0.0183609 0.1450000
v -0.0270689 0.0171104 0.1450000
v -0.0283825 0.0156967 0.1450000
v -0.0294903 0.0141068 0.1450000
v -0.0303948 0.0123189 0.1450000
v -0.0310975 0.0102935 0.1450000
v -0.0315990 0.0079503 0.1450000
v -0.0318998 0.0050825 0.1450000
v -0.0320000 0.0000000 0.1450000
v -0.0318998 -0.0050825 0.1450000
v -0.0315990 -0.0079503 0.1450000
v -0.0310975 -0.0102935 0.1450000
v -0.0303948 -0.0123189 0.1450000
v -0.0294903 -0.0141068 0.1450000
v -0.0283825 -0.0156967 0.1450000
v -0.0270689 -0.0171104 0.1450000
v -0.0255455 -0.0183609 0.1450000
v -0.0238058 -0.0194558 0.1450000
v -0.0218389 -0.0203999 0.1450000
v -0.0196269 -0.0211962 0.1450000
v -0.0171394 -0.0218463 0.1450000
v -0.0143214 -0.0223513 0.1450000
v -0.0110612 -0.0227118 0.1450000
v -0.0070713 -0.0229280 0.1450000
v -0.0000000 -0.0230000 0.1450000
v 0.0070713 -0.0229280 0.1450000
v 0.0110612 -0.0227118 0.1450000
v 0.0143214 -0.0223513 0.1450000
v 0.0171394 -0.0218463 0.1450000
v 0.0196269 -0.0211962 0.1450000
v 0.0218389 -0.0203999 0.1450000
v 0.0238058 -0.0194558 0.1450000
v 0.0255455 -0.0183609 0.1450000
v 0.0270689 -0.0171104 0.1450000
v 0.0283825 -0.0156967 0.1450000
v 0.0294903 -0.0141068 0.1450000
v 0.0303948 -0.0123189 0.1450000
v 0.0310975 -0.0102935 0.1450000
v 0.0315990 -0.0079503 0.1450000
v 0.0318998 -0.0050825 0.1450000
v 0.0240000 0.0000000 0.1600000
v 0.0239248 0.0044195 0.1600000
v 0.0236992 0.0069133 0.1600000
v 0.0233231 0.0089509 0.1600000
v 0.0227961 0.0107121 0.1600000
v 0.0221177 0.0122668 0.1600000
v 0.0212868 0.0136493 0.1600000
v 0.0203017 0.0148786 0.1600000
v 0.0191592 0.0159660 0.1600000
v 0.0178544 0.0169181 0.1600000
v 0.0163792 0.0177390 0.1600000
v 0.0147202 0.0184314 0.1600000
v 0.0128546 0.0189968 0.1600000
v 0.0107411 0.0194359 0.1600000
v 0.0082959 0.0197494 0.1600000
v 0.0053034 0.0199373 0.1600000
v 0.0000000 0.0200000 0.1600000
v -0.0053034 0.0199373 0.1600000
v -0.0082959 0.0197494 0.1600000
v -0.0107411 0.0194359 0.1600000
v -0.0128546 0.0189968 0.1600000
v -0.0147202 0.0184314 0.1600000
v -0.0163792 0.0177390 0.1600000
v -0.0178544 0.0169181 0.1600000
v -0.0191592 0.0159660 0.1600000
v -0.0203017 0.0148786 0.1600000
v -0.0212868 0.0136493 0.1600000
v -0.0221177 0.0122668 0.1600000
v -0.0227961 0.0107121 0.1600000
v -0.0233231 0.0089509 0.1600000
v -0.0236992 0.0069133 0.1600000
v -0.0239248 0.0044195 0.1600000
v -0.0240000 0.0000000 0.1600000
v -0.0239248 -0.0044195 0.1600000
v -0.0236992 -0.0069133 0.1600000
v -0.0233231 -0.0089509 0.1600000
v -0.0227961 -0.0107121 0.1600000
v -0.0221177 -0.0122668 0.1600000
v -0.0212868 -0.0136493 0.1600000
v -0.0203017 -0.0148786 0.1600000
v -0.0191592 -0.0159660 0.1600000
v -0.0178544 -0.0169181 0.1600000
v -0.0163792 -0.0177390 0.1600000
v -0.0147202 -0.0184314 0.1600000
v -0.0128546 -0.0189968 0.1600000
v -0.0107411 -0.0194359 0.1600000
v -0.0082959 -0.0197494 0.1600000
v -0.0053034 -0.0199373 0.1600000
v -0.0000000 -0.0200000 0.1600000
v 0.0053034 -0.0199373 0.1600000
v 0.0082959 -0.0197494 0.1600000
v 0.0107411 -0.0194359 0.1600000
v 0.0128546 -0.0189968 0.1600000
v 0.0147202 -0.0184314 0.1600000
v 0.0163792 -0.0177390 0.1600000
v 0.0178544 -0.0169181 0.1600000
v 0.0191592 -0.0159660 0.1600000
v 0.0203017 -0.0148786 0.1600000
v 0.0212868 -0.0136493 0.1600000
v 0.0221177 -0.0122668 0.1600000
v 0.0227961 -0.0107121 0.1600000
v 0.0233231 -0.0089509 0.1600000
v 0.0236992 -0.0069133 0.1600000
v 0.0239248 -0.0044195 0.1600000
v 0.0160000 0.0000000 0.1780000
v 0.0159499 0.0033146 0.1780000
v 0.0157995 0.0051849 0.1780000
v 0.0155487 0.0067132 0.1780000
v 0.0151974 0.0080341 0.1780000
v 0.0147452 0.0092001 0.1780000
v 0.0141912 0.0102370 0.1780000
v 0.0135344 0.0111590 0.1780000
v 0.0127728 0.0119745 0.1780000
v 0.0119029 0.0126885 0.1780000
v 0.0109194 0.0133043 0.1780000
v 0.0098134 0.0138236 0.1780000
v 0.0085697 0.0142476 0.1780000
v 0.0071607 0.0145769 0.1780000
v 0.0055306 0.0148120 0.1780000
v 0.0035356 0.0149530 0.1780000
v 0.0000000 0.0150000 0.1780000
v -0.0035356 0.0149530 0.1780000
v -0.0055306 0.0148120 0.1780000
v -0.0071607 0.0145769 0.1780000
v -0.0085697 0.0142476 0.1780000
v -0.0098134 0.0138236 0.1780000
v -0.0109194 0.0133043 0.1780000
v -0.0119029 0.0126885 0.1780000
v -0.0127728 0.0119745 0.1780000
v -0.0135344 0.0111590 0.1780000
v -0.0141912 0.0102370 0.1780000
v -0.0147452 0.0092001 0.1780000
v -0.0151974 0.0080341 0.1780000
v -0.0155487 0.0067132 0.1780000
v -0.0157995 0.0051849 0.1780000
v -0.0159499 0.0033146 0.1780000
v -0.0160000 0.0000000 0.1780000
v -0.0159499 -0.0033146 0.1780000
v -0.0157995 -0.0051849 0.1780000
v -0.0155487 -0.0067132 0.1780000
v -0.0151974 -0.0080341 0.1780000
v -0.0147452 -0.0092001 0.1780000
v -0.0141912 -0.0102370 0.1780000
v -0.0135344 -0.0111590 0.1780000
v -0.0127728 -0.0119745 0.1780000
v -0.0119029 -0.0126885 0.1780000
v -0.0109194 -0.0133043 0.1780000
v -0.0098134 -0.0138236 0.1780000
v -0.0085697 -0.0142476 0.1780000
v -0.0071607 -0.0145769 0.1780000
v -0.0055306 -0.0148120 0.1780000
v -0.0035356 -0.0149530 0.1780000
v -0.0000000 -0.0150000 0.1780000
v 0.0035356 -0.0149530 0.1780000
v 0.0055306 -0.0148120 0.1780000
v 0.0071607 -0.0145769 0.1780000
v 0.0085697 -0.0142476 0.1780000
v 0.0098134 -0.0138236 0.1780000
v 0.0109194 -0.0133043 0.1780000
v 0.0119029 -0.0126885 0.1780000
v 0.0127728 -0.0119745 0.1780000
v 0.0135344 -0.0111590 0.1780000
v 0.0141912 -0.0102370 0.1780000
v 0.0147452 -0.0092001 0.1780000
v 0.0151974 -0.0080341 0.1780000
v 0.0155487 -0.0067132 0.1780000
v 0.0157995 -0.0051849 0.1780000
v 0.0159499 -0.0033146 0.1780000
v 0.0140000 0.0000000 0.1950000
v 0.0139561 0.0028727 0.1950000
v 0.0138246 0.0044936 0.1950000
v 0.0136051 0.0058181 0.1950000
v 0.0132977 0.0069629 0.1950000
v 0.0129020 0.0079734 0.1950000
v 0.0124173 0.0088720 0.1950000
v 0.0118426 0.0096711 0.1950000
v 0.0111762 0.0103779 0.1950000
v 0.0104150 0.0109967 0.1950000
v 0.0095545 0.0115304 0.1950000
v 0.0085868 0.0119804 0.1950000
v 0.0074985 0.0123479 0.1950000
v 0.0062656 0.0126333 0.1950000
v 0.0048393 0.0128371 0.1950000
v 0.0030937 0.0129593 0.1950000
v 0.0000000 0.0130000 0.1950000
v -0.0030937 0.0129593 0.1950000
v -0.0048393 0.0128371 0.1950000
v -0.0062656 0.0126333 0.1950000
v -0.0074985 0.0123479 0.1950000
v -0.0085868 0.0119804 0.1950000
v -0.0095545 0.0115304 0.1950000
v -0.0104150 0.0109967 0.1950000
v -0.0111762 0.0103779 0.1950000
v -0.0118426 0.0096711 0.1950000
v -0.0124173 0.0088720 0.1950000
v -0.0129020 0.0079734 0.1950000
v -0.0132977 0.0069629 0.1950000
v -0.0136051 0.0058181 0.1950000
v -0.0138246 0.0044936 0.1950000
v -0.0139561 0.0028727 0.1950000
v -0.0140000 0.0000000 0.1950000
v -0.0139561 -0.0028727 0.1950000
v -0.0138246 -0.0044936 0.1950000
v -0.0136051 -0.0058181 0.1950000
v -0.0132977 -0.0069629 0.1950000
v -0.0129020 -0.0079734 0.1950000
v -0.0124173 -0.0088720 0.1950000
v -0.0118426 -0.0096711 0.1950000
v -0.0111762 -0.0103779 0.1950000
v -0.0104150 -0.0109967 0.1950000
v -0.0095545 -0.0115304 0.1950000
v -0.0085868 -0.0119804 0.1950000
v -0.0074985 -0.0123479 0.1950000
v -0.0062656 -0.0126333 0.1950000
v -0.0048393 -0.0128371 0.1950000
v -0.0030937 -0.0129593 0.1950000
v -0.0000000 -0.0130000 0.1950000
v 0.0030937 -0.0129593 0.1950000
v 0.0048393 -0.0128371 0.1950000
v 0.0062656 -0.0126333 0.1950000
v 0.0074985 -0.0123479 0.1950000
v 0.0085868 -0.0119804 0.1950000
v 0.0095545 -0.0115304 0.1950000
v 0.0104150 -0.0109967 0.1950000
v 0.0111762 -0.0103779 0.1950000
v 0.0118426 -0.0096711 0.1950000
v 0.0124173 -0.0088720 0.1950000
v 0.0129020 -0.0079734 0.1950000
v 0.0132977 -0.0069629 0.1950000
v 0.0136051 -0.0058181 0.1950000
v 0.0138246 -0.0044936 0.1950000
v 0.0139561 -0.0028727 0.1950000
v 0.0000000 0.0000000 0.0000000
v 0.0000000 0.0000000 0.1950000
f 1 2 66
f 1 66 65
f 2 3 67
f 2 67 66
f 3 4 68
f 3 68 67
f 4 5 69
f 4 69 68
f 5 6 70
f 5 70 69
f 6 7 71
f 6 71 70
f 7 8 72
f 7 72 71
f 8 9 73
f 8 73 72
f 9 10 74
f 9 74 73
f 10 11 75
f 10 75 74
f 11 12 76
f 11 76 75
f 12 13 77
f 12 77 76
f 13 14 78
f 13 78 77
f 14 15 79
f 14 79 78
f 15 16 80
f 15 80 79
f 16 17 81
f 16 81 80
f 17 18 82
f 17 82 81
f 18 19 83
f 18 83 82
f 19 20 84
f 19 84 83
f 20 21 85
f 20 85 84
f 21 22 86
f 21 86 85
f 22 23 87
f 22 87 86
f 23 24 88
f 23 88 87
f 24 25 89
f 24 89 88
f 25 26 90
f 25 90 89
f 26 27 91
f 26 91 90
f 27 28 92
f 27 92 91
f 28 29 93
f 28 93 92
f 29 30 94
f 29 94 93
f 30 31 95
f 30 95 94
f 31 32 96
f 31 96 95
f 32 33 97
f 32 97 96
f 33 34 98
f 33 98 97
f 34 35 99
f 34 99 98
f 35 36 100
f 35 100 99
f 36 37 101
f 36 101 100
f 37 38 102
f 37 102 101
f 38 39 103
f 38 103 102
f 39 40 104
f 39 104 103
f 40 41 105
f 40 105 104
f 41 42 106
f 41 106 105
f 42 43 107
f 42 107 106
f 43 44 108
f 43 108 107
f 44 45 109
f 44 109 108
f 45 46 110
f 45 110 109
f 46 47 111
f 46 111 110
f 47 48 112
f 47 112 111
f 48 49 113
f 48 113 112
f 49 50 114
f 49 114 113
f 50 51 115
f 50 115 114
f 51 52 116
f 51 116 115
f 52 53 117
f 52 117 116
f 53 54 118
f 53 118 117
f 54 55 119
f 54 119 118
f 55 56 120
f 55 120 119
f 56 57 121
f 56 121 120
f 57 58 122
f 57 122 121
f 58 59 123
f 58 123 122
f 59 60 124
f 59 124 123
f 60 61 125
f 60 125 124
f 61 62 126
f 61 126 125
f 62 63 127
f 62 127 126
f 63 64 128
f 63 128 127
f 64 1 65
f 64 65 128
f 65 66 130
f 65 130 129
f 66 67 131
f 66 131 130
f 67 68 132
f 67 132 131
f 68 69 133
f 68 133 132
f 69 70 134
f 69 134 133
f 70 71 135
f 70 135 134
f 71 72 136
f 71 136 135
f 72 73 137
f 72 137 136
f 73 74 138
f 73 138 137
f 74 75 139
f 74 139 138
f 75 76 140
f 75 140 139
f 76 77 141
f 76 141 140
f 77 78 142
f 77 142 141
f 78 79 143
f 78 143 142
f 79 80 144
f 79 144 143
f 80 81 145
f 80 145 144
f 81 82 146
f 81 146 145
f 82 83 147
f 82 147 146
f 83 84 148
f 83 148 147
f 84 85 149
f 84 149 148
f 85 86 150
f 85 150 149
f 86 87 151
f 86 151 150
f 87 88 152
f 87 152 151
f 88 89 153
f 88 153 152
f 89 90 154
f 89 154 153
f 90 91 155
f 90 155 154
f 91 92 156
f 91 156 155
f 92 93 157
f 92 157 156
f 93 94 158
f 93 158 157
f 94 95 159
f 94 159 158
f 95 96 160
f 95 160 159
f 96 97 161
f 96 161 160
f 97 98 162
f 97 162 161
f 98 99 163
f 98 163 162
f 99 100 164
f 99 164 163
f 100 101 165
f 100 165 164
f 101 102 166
f 101 166 165
f 102 103 167
f 102 167 166
f 103 104 168
f 103 168 167
f 104 105 169
f 104 169 168
f 105 106 170
f 105 170 169
f 106 107 171
f 106 171 170
f 107 108 172
f 107 172 171
f 108 109 173
f 108 173 172
f 109 110 174
f 109 174 173
f 110 111 175
f 110 175 174
f 111 112 176
f 111 176 175
f 112 113 177
f 112 177 176
f 113 114 178
f 113 178 177
f 114 115 179
f 114 179 178
f 115 116 180
f 115 180 179
f 116 117 181
f 116 181 180
f 117 118 182
f 117 182 181
f 118 119 183
f 118 183 182
f 119 120 184
f 119 184 183
f 120 121 185
f 120 185 184
f 121 122 186
f 121 186 185
f 122 123 187
f 122 187 186
f 123 124 188
f 123 188 187
f 124 125 189
f 124 189 188
f 125 126 190
f 125 190 189
f 126 127 191
f 126 191 190
f 127 128 192
f 127 192 191
f 128 65 129
f 128 129 192
f 129 130 194
f 129 194 193
f 130 131 195
f 130 195 194
f 131 132 196
f 131 196 195
f 132 133 197
f 132 197 196
f 133 134 198
f 133 198 197
f 134 135 199
f 134 199 198
f 135 136 200
f 135 200 199
f 136 137 201
f 136 201 200
f 137 138 202
f 137 202 201
f 138 139 203
f 138 203 202
f 139 140 204
f 139 204 203
f 140 141 205
f 140 205 204
f 141 142 206
f 141 206 205
f 142 143 207
f 142 207 206
f 143 144 208
f 143 208 207
f 144 145 209
f 144 209 208
f 145 146 210
f 145 210 209
f 146 147 211
f 146 211 210
f 147 148 212
f 147 212 211
f 148 149 213
f 148 213 212
f 149 150 214
f 149 214 213
f 150 151 215
f 150 215 214
f 151 152 216
f 151 216 215
f 152 153 217
f 152 217 216
f 153 154 218
f 153 218 217
f 154 155 219
f 154 219 218
f 155 156 220
f 155 220 219
f 156 157 221
f 156 221 220
f 157 158 222
f 157 222 221
f 158 159 223
f 158 223 222
f 159 160 224
f 159 224 223
f 160 161 225
f 160 225 224
f 161 162 226
f 161 226 225
f 162 163 227
f 162 227 226
f 163 164 228
f 163 228 227
f 164 165 229
f 164 229 228
f 165 166 230
f 165 230 229
f 166 167 231
f 166 231 230
f 167 168 232
f 167 232 231
f 168 169 233
f 168 233 232
f 169 170 234
f 169 234 233
f 170 171 235
f 170 235 234
f 171 172 236
f 171 236 235
f 172 173 237
f 172 237 236
f 173 174 238
f 173 238 237
f 174 175 239
f 174 239 238
f 175 176 240
f 175 240 239
f 176 177 241
f 176 241 240
f 177 178 242
f 177 242 241
f 178 179 243
f 178 243 242
f 179 180 244
f 179 244 243
f 180 181 245
f 180 245 244
f 181 182 246
f 181 246 245
f 182 183 247
f 182 247 246
f 183 184 248
f 183 248 247
f 184 185 249
f 184 249 248
f 185 186 250
f 185 250 249
f 186 187 251
f 186 251 250
f 187 188 252
f 187 252 251
f 188 189 253
f 188 253 252
f 189 190 254
f 189 254 253
f 190 191 255
f 190 255 254
f 191 192 256
f 191 256 255
f 192 129 193
f 192 193 256
f 193 194 258
f 193 258 257
f 194 195 259
f 194 259 258
f 195 196 260
f 195 260 259
f 196 197 261
f 196 261 260
f 197 198 262
f 197 262 261
f 198 199 263
f 198 263 262
f 199 200 264
f 199 264 263
f 200 201 265
f 200 265 264
f 201 202 266
f 201 266 265
f 202 203 267
f 202 267 266
f 203 204 268
f 203 268 267
f 204 205 269
f 204 269 268
f 205 206 270
f 205 270 269
f 206 207 271
f 206 271 270
f 207 208 272
f 207 272 271
f 208 209 273
f 208 273 272
f 209 210 274
f 209 274 273
f 210 211 275
f 210 275 274
f 211 212 276
f 211 276 275
f 212 213 277
f 212 277 276
f 213 214 278
f 213 278 277
f 214 215 279
f 214 279 278
f 215 216 280
f 215 280 279
f 216 217 281
f 216 281 280
f 217 218 282
f 217 282 281
f 218 219 283
f 218 283 282
f 219 220 284
f 219 284 283
f 220 221 285
f 220 285 284
f 221 222 286
f 221 286 285
f 222 223 287
f 222 287 286
f 223 224 288
f 223 288 287
f 224 225 289
f 224 289 288
f 225 226 290
f 225 290 289
f 226 227 291
f 226 291 290
f 227 228 292
f 227 292 291
f 228 229 293
f 228 293 292
f 229 230 294
f 229 294 293
f 230 231 295
f 230 295 294
f 231 232 296
f 231 296 295
f 232 233 297
f 232 297 296
f 233 234 298
f 233 298 297
f 234 235 299
f 234 299 298
f 235 236 300
f 235 300 299
f 236 237 301
f 236 301 300
f 237 238 302
f 237 302 301
f 238 239 303
f 238 303 302
f 239 240 304
f 239 304 303
f 240 241 305
f 240 305 304
f 241 242 306
f 241 306 305
f 242 243 307
f 242 307 306
f 243 244 308
f 243 308 307
f 244 245 309
f 244 309 308
f 245 246 310
f 245 310 309
f 246 247 311
f 246 311 310
f 247 248 312
f 247 312 311
f 248 249 313
f 248 313 312
f 249 250 314
f 249 314 313
f 250 251 315
f 250 315 314
f 251 252 316
f 251 316 315
f 252 253 317
f 252 317 316
f 253 254 318
f 253 318 317
f 254 255 319
f 254 319 318
f 255 256 320
f 255 320 319
f 256 193 257
f 256 257 320
f 257 258 322
f 257 322 321
f 258 259 323
f 258 323 322
f 259 260 324
f 259 324 323
f 260 261 325
f 260 325 324
f 261 262 326
f 261 326 325
f 262 263 327
f 262 327 326
f 263 264 328
f 263 328 327
f 264 265 329
f 264 329 328
f 265 266 330
f 265 330 329
f 266 267 331
f 266 331 330
f 267 268 332
f 267 332 331
f 268 269 333
f 268 333 332
f 269 270 334
f 269 334 333
f 270 271 335
f 270 335 334
f 271 272 336
f 271 336 335
f 272 273 337
f 272 337 336
f 273 274 338
f 273 338 337
f 274 275 339
f 274 339 338
f 275 276 340
f 275 340 339
f 276 277 341
f 276 341 340
f 277 278 342
f 277 342 341
f 278 279 343
f 278 343 342
f 279 280 344
f 279 344 343
f 280 281 345
f 280 345 344
f 281 282 346
f 281 346 345
f 282 283 347
f 282 347 346
f 283 284 348
f 283 348 347
f 284 285 349
f 284 349 348
f 285 286 350
f 285 350 349
f 286 287 351
f 286 351 350
f 287 288 352
f 287 352 351
f 288 289 353
f 288 353 352
f 289 290 354
f 289 354 353
f 290 291 355
f 290 355 354
f 291 292 356
f 291 356 355
f 292 293 357
f 292 357 356
f 293 294 358
f 293 358 357
f 294 295 359
f 294 359 358
f 295 296 360
f 295 360 359
f 296 297 361
f 296 361 360
f 297 298 362
f 297 362 361
f 298 299 363
f 298 363 362
f 299 300 364
f 299 364 363
f 300 301 365
f 300 365 364
f 301 302 366
f 301 366 365
f 302 303 367
f 302 367 366
f 303 304 368
f 303 368 367
f 304 305 369
f 304 369 368
f 305 306 370
f 305 370 369
f 306 307 371
f 306 371 370
f 307 308 372
f 307 372 371
f 308 309 373
f 308 373 372
f 309 310 374
f 309 374 373
f 310 311 375
f 310 375 374
f 311 312 376
f 311 376 375
f 312 313 377
f 312 377 376
f 313 314 378
f 313 378 377
f 314 315 379
f 314 379 378
f 315 316 380
f 315 380 379
f 316 317 381
f 316 381 380
f 317 318 382
f 317 382 381
f 318 319 383
f 318 383 382
f 319 320 384
f 319 384 383
f 320 257 321
f 320 321 384
f 321 322 386
f 321 386 385
f 322 323 387
f 322 387 386
f 323 324 388
f 323 388 387
f 324 325 389
f 324 389 388
f 325 326 390
f 325 390 389
f 326 327 391
f 326 391 390
f 327 328 392
f 327 392 391
f 328 329 393
f 328 393 392
f 329 330 394
f 329 394 393
f 330 331 395
f 330 395 394
f 331 332 396
f 331 396 395
f 332 333 397
f 332 397 396
f 333 334 398
f 333 398 397
f 334 335 399
f 334 399 398
f 335 336 400
f 335 400 399
f 336 337 401
f 336 401 400
f 337 338 402
f 337 402 401
f 338 339 403
f 338 403 402
f 339 340 404
f 339 404 403
f 340 341 405
f 340 405 404
f 341 342 406
f 341 406 405
f 342 343 407
f 342 407 406
f 343 344 408
f 343 408 407
f 344 345 409
f 344 409 408
f 345 346 410
f 345 410 409
f 346 347 411
f 346 411 410
f 347 348 412
f 347 412 411
f 348 349 413
f 348 413 412
f 349 350 414
f 349 414 413
f 350 351 415
f 350 415 414
f 351 352 416
f 351 416 415
f 352 353 417
f 352 417 416
f 353 354 418
f 353 418 417
f 354 355 419
f 354 419 418
f 355 356 420
f 355 420 419
f 356 357 421
f 356 421 420
f 357 358 422
f 357 422 421
f 358 359 423
f 358 423 422
f 359 360 424
f 359 424 423
f 360 361 425
f 360 425 424
f 361 362 426
f 361 426 425
f 362 363 427
f 362 427 426
f 363 364 428
f 363 428 427
f 364 365 429
f 364 429 428
f 365 366 430
f 365 430 429
f 366 367 431
f 366 431 430
f 367 368 432
f 367 432 431
f 368 369 433
f 368 433 432
f 369 370 434
f 369 434 433
f 370 371 435
f 370 435 434
f 371 372 436
f 371 436 435
f 372 373 437
f 372 437 436
f 373 374 438
f 373 438 437
f 374 375 439
f 374 439 438
f 375 376 440
f 375 440 439
f 376 377 441
f 376 441 440
f 377 378 442
f 377 442 441
f 378 379 443
f 378 443 442
f 379 380 444
f 379 444 443
f 380 381 445
f 380 445 444
f 381 382 446
f 381 446 445
f 382 383 447
f 382 447 446
f 383 384 448
f 383 448 447
f 384 321 385
f 384 385 448
f 385 386 450
f 385 450 449
f 386 387 451
f 386 451 450
f 387 388 452
f 387 452 451
f 388 389 453
f 388 453 452
f 389 390 454
f 389 454 453
f 390 391 455
f 390 455 454
f 391 392 456
f 391 456 455
f 392 393 457
f 392 457 456
f 393 394 458
f 393 458 457
f 394 395 459
f 394 459 458
f 395 396 460
f 395 460 459
f 396 397 461
f 396 461 460
f 397 398 462
f 397 462 461
f 398 399 463
f 398 463 462
f 399 400 464
f 399 464 463
f 400 401 465
f 400 465 464
f 401 402 466
f 401 466 465
f 402 403 467
f 402 467 466
f 403 404 468
f 403 468 467
f 404 405 469
f 404 469 468
f 405 406 470
f 405 470 469
f 406 407 471
f 406 471 470
f 407 408 472
f 407 472 471
f 408 409 473
f 408 473 472
f 409 410 474
f 409 474 473
f 410 411 475
f 410 475 474
f 411 412 476
f 411 476 475
f 412 413 477
f 412 477 476
f 413 414 478
f 413 478 477
f 414 415 479
f 414 479 478
f 415 416 480
f 415 480 479
f 416 417 481
f 416 481 480
f 417 418 482
f 417 482 481
f 418 419 483
f 418 483 482
f 419 420 484
f 419 484 483
f 420 421 485
f 420 485 484
f 421 422 486
f 421 486 485
f 422 423 487
f 422 487 486
f 423 424 488
f 423 488 487
f 424 425 489
f 424 489 488
f 425 426 490
f 425 490 489
f 426 427 491
f 426 491 490
f 427 428 492
f 427 492 491
f 428 429 493
f 428 493 492
f 429 430 494
f 429 494 493
f 430 431 495
f 430 495 494
f 431 432 496
f 431 496 495
f 432 433 497
f 432 497 496
f 433 434 498
f 433 498 497
f 434 435 499
f 434 499 498
f 435 436 500
f 435 500 499
f 436 437 501
f 436 501 500
f 437 438 502
f 437 502 501
f 438 439 503
f 438 503 502
f 439 440 504
f 439 504 503
f 440 441 505
f 440 505 504
f 441 442 506
f 441 506 505
f 442 443 507
f 442 507 506
f 443 444 508
f 443 508 507
f 444 445 509
f 444 509 508
f 445 446 510
f 445 510 509
f 446 447 511
f 446 511 510
f 447 448 512
f 447 512 511
f 448 385 449
f 448 449 512
f 449 450 514
f 449 514 513
f 450 451 515
f 450 515 514
f 451 452 516
f 451 516 515
f 452 453 517
f 452 517 516
f 453 454 518
f 453 518 517
f 454 455 519
f 454 519 518
f 455 456 520
f 455 520 519
f 456 457 521
f 456 521 520
f 457 458 522
f 457 522 521
f 458 459 523
f 458 523 522
f 459 460 524
f 459 524 523
f 460 461 525
f 460 525 524
f 461 462 526
f 461 526 525
f 462 463 527
f 462 527 526
f 463 464 528
f 463 528 527
f 464 465 529
f 464 529 528
f 465 466 530
f 465 530 529
f 466 467 531
f 466 531 530
f 467 468 532
f 467 532 531
f 468 469 533
f 468 533 532
f 469 470 534
f 469 534 533
f 470 471 535
f 470 535 534
f 471 472 536
f 471 536 535
f 472 473 537
f 472 537 536
f 473 474 538
f 473 538 537
f 474 475 539
f 474 539 538
f 475 476 540
f 475 540 539
f 476 477 541
f 476 541 540
f 477 478 542
f 477 542 541
f 478 479 543
f 478 543 542
f 479 480 544
f 479 544 543
f 480 481 545
f 480 545 544
f 481 482 546
f 481 546 545
f 482 483 547
f 482 547 546
f 483 484 548
f 483 548 547
f 484 485 549
f 484 549 548
f 485 486 550
f 485 550 549
f 486 487 551
f 486 551 550
f 487 488 552
f 487 552 551
f 488 489 553
f 488 553 552
f 489 490 554
f 489 554 553
f 490 491 555
f 490 555 554
f 491 492 556
f 491 556 555
f 492 493 557
f 492 557 556
f 493 494 558
f 493 558 557
f 494 495 559
f 494 559 558
f 495 496 560
f 495 560 559
f 496 497 561
f 496 561 560
f 497 498 562
f 497 562 561
f 498 499 563
f 498 563 562
f 499 500 564
f 499 564 563
f 500 501 565
f 500 565 564
f 501 502 566
f 501 566 565
f 502 503 567
f 502 567 566
f 503 504 568
f 503 568 567
f 504 505 569
f 504 569 568
f 505 506 570
f 505 570 569
f 506 507 571
f 506 571 570
f 507 508 572
f 507 572 571
f 508 509 573
f 508 573 572
f 509 510 574
f 509 574 573
f 510 511 575
f 510 575 574
f 511 512 576
f 511 576 575
f 512 449 513
f 512 513 576
f 513 514 578
f 513 578 577
f 514 515 579
f 514 579 578
f 515 516 580
f 515 580 579
f 516 517 581
f 516 581 580
f 517 518 582
f 517 582 581
f 518 519 583
f 518 583 582
f 519 520 584
f 519 584 583
f 520 521 585
f 520 585 584
f 521 522 586
f 521 586 585
f 522 523 587
f 522 587 586
f 523 524 588
f 523 588 587
f 524 525 589
f 524 589 588
f 525 526 590
f 525 590 589
f 526 527 591
f 526 591 590
f 527 528 592
f 527 592 591
f 528 529 593
f 528 593 592
f 529 530 594
f 529 594 593
f 530 531 595
f 530 595 594
f 531 532 596
f 531 596 595
f 532 533 597
f 532 597 596
f 533 534 598
f 533 598 597
f 534 535 599
f 534 599 598
f 535 536 600
f 535 600 599
f 536 537 601
f 536 601 600
f 537 538 602
f 537 602 601
f 538 539 603
f 538 603 602
f 539 540 604
f 539 604 603
f 540 541 605
f 540 605 604
f 541 542 606
f 541 606 605
f 542 543 607
f 542 607 606
f 543 544 608
f 543 608 607
f 544 545 609
f 544 609 608
f 545 546 610
f 545 610 609
f 546 547 611
f 546 611 610
f 547 548 612
f 547 612 611
f 548 549 613
f 548 613 612
f 549 550 614
f 549 614 613
f 550 551 615
f 550 615 614
f 551 552 616
f 551 616 615
f 552 553 617
f 552 617 616
f 553 554 618
f 553 618 617
f 554 555 619
f 554 619 618
f 555 556 620
f 555 620 619
f 556 557 621
f 556 621 620
f 557 558 622
f 557 622 621
f 558 559 623
f 558 623 622
f 559 560 624
f 559 624 623
f 560 561 625
f 560 625 624
f 561 562 626
f 561 626 625
f 562 563 627
f 562 627 626
f 563 564 628
f 563 628 627
f 564 565 629
f 564 629 628
f 565 566 630
f 565 630 629
f 566 567 631
f 566 631 630
f 567 568 632
f 567 632 631
f 568 569 633
f 568 633 632
f 569 570 634
f 569 634 633
f 570 571 635
f 570 635 634
f 571 572 636
f 571 636 635
f 572 573 637
f 572 637 636
f 573 574 638
f 573 638 637
f 574 575 639
f 574 639 638
f 575 576 640
f 575 640 639
f 576 513 577
f 576 577 640
f 641 2 1
f 642 577 578
f 641 3 2
f 642 578 579
f 641 4 3
f 642 579 580
f 641 5 4
f 642 580 581
f 641 6 5
f 642 581 582
f 641 7 6
f 642 582 583
f 641 8 7
f 642 583 584
f 641 9 8
f 642 584 585
f 641 10 9
f 642 585 586
f 641 11 10
f 642 586 587
f 641 12 11
f 642 587 588
f 641 13 12
f 642 588 589
f 641 14 13
f 642 589 590
f 641 15 14
f 642 590 591
f 641 16 15
f 642 591 592
f 641 17 16
f 642 592 593
f 641 18 17
f 642 593 594
f 641 19 18
f 642 594 595
f 641 20 19
f 642 595 596
f 641 21 20
f 642 596 597
f 641 22 21
f 642 597 598
f 641 23 22
f 642 598 599
f 641 24 23
f 642 599 600
f 641 25 24
f 642 600 601
f 641 26 25
f 642 601 602
f 641 27 26
f 642 602 603
f 641 28 27
f 642 603 604
f 641 29 28
f 642 604 605
f 641 30 29
f 642 605 606
f 641 31 30
f 642 606 607
f 641 32 31
f 642 607 608
f 641 33 32
f 642 608 609
f 641 34 33
f 642 609 610
f 641 35 34
f 642 610 611
f 641 36 35
f 642 611 612
f 641 37 36
f 642 612 613
f 641 38 37
f 642 613 614
f 641 39 38
f 642 614 615
f 641 40 39
f 642 615 616
f 641 41 40
f 642 616 617
f 641 42 41
f 642 617 618
f 641 43 42
f 642 618 619
f 641 44 43
f 642 619 620
f 641 45 44
f 642 620 621
f 641 46 45
f 642 621 622
f 641 47 46
f 642 622 623
f 641 48 47
f 642 623 624
f 641 49 48
f 642 624 625
f 641 50 49
f 642 625 626
f 641 51 50
f 642 626 627
f 641 52 51
f 642 627 628
f 641 53 52
f 642 628 629
f 641 54 53
f 642 629 630
f 641 55 54
f 642 630 631
f 641 56 55
f 642 631 632
f 641 57 56
f 642 632 633
f 641 58 57
f 642 633 634
f 641 59 58
f 642 634 635
f 641 60 59
f 642 635 636
f 641 61 60
f 642 636 637
f 641 62 61
f 642 637 638
f 641 63 62
f 642 638 639
f 641 64 63
f 642 639 640
f 641 1 64
f 642 640 577
