# Procedural Colin-style simulation prop, dimensions in meters
v 0.0210000 -0.0050000 0.2170000
v 0.0280000 -0.0050000 0.2140000
v 0.0300000 -0.0050000 0.2000000
v 0.0280000 -0.0050000 0.1830000
v 0.0210000 -0.0050000 0.1730000
v 0.0160000 -0.0050000 0.1750000
v 0.0210000 -0.0050000 0.1880000
v 0.0230000 -0.0050000 0.2010000
v 0.0210000 0.0050000 0.2170000
v 0.0280000 0.0050000 0.2140000
v 0.0300000 0.0050000 0.2000000
v 0.0280000 0.0050000 0.1830000
v 0.0210000 0.0050000 0.1730000
v 0.0160000 0.0050000 0.1750000
v 0.0210000 0.0050000 0.1880000
v 0.0230000 0.0050000 0.2010000
f 2 8 1
f 9 16 10
f 3 8 2
f 10 16 11
f 6 4 5
f 13 12 14
f 7 4 6
f 14 12 15
f 3 4 7
f 15 12 11
f 8 3 7
f 15 11 16
f 1 2 10
f 1 10 9
f 2 3 11
f 2 11 10
f 3 4 12
f 3 12 11
f 4 5 13
f 4 13 12
f 5 6 14
f 5 14 13
f 6 7 15
f 6 15 14
f 7 8 16
f 7 16 15
f 8 1 9
f 8 9 16
