# Procedural Colin-style simulation prop, dimensions in meters
v -0.0273297 -0.0303500 0.0754990
v -0.0274574 -0.0303500 0.0750086
v -0.0262886 -0.0303500 0.0746455
v -0.0273297 -0.0303500 0.0754990
v -0.0262886 -0.0303500 0.0746455
v -0.0261676 -0.0303500 0.0753796
v -0.0273297 -0.0303500 0.0754990
v -0.0261676 -0.0303500 0.0753796
v -0.0271168 -0.0303500 0.0759528
v -0.0271168 -0.0303500 0.0759528
v -0.0261676 -0.0303500 0.0753796
v -0.0268206 -0.0303500 0.0763649
v -0.0268206 -0.0303500 0.0763649
v -0.0261676 -0.0303500 0.0753796
v -0.0258045 -0.0303500 0.0759669
v -0.0268206 -0.0303500 0.0763649
v -0.0258045 -0.0303500 0.0759669
v -0.0263712 -0.0303500 0.0767828
v -0.0263712 -0.0303500 0.0767828
v -0.0258045 -0.0303500 0.0759669
v -0.0258475 -0.0303500 0.0770797
v -0.0258475 -0.0303500 0.0770797
v -0.0258045 -0.0303500 0.0759669
v -0.0252483 -0.0303500 0.0763530
v -0.0258475 -0.0303500 0.0770797
v -0.0252483 -0.0303500 0.0763530
v -0.0252469 -0.0303500 0.0772570
v -0.0252469 -0.0303500 0.0772570
v -0.0252483 -0.0303500 0.0763530
v -0.0245481 -0.0303500 0.0764817
v -0.0252469 -0.0303500 0.0772570
v -0.0245481 -0.0303500 0.0764817
v -0.0245663 -0.0303500 0.0773161
v -0.0245663 -0.0303500 0.0773161
v -0.0245481 -0.0303500 0.0764817
v -0.0241639 -0.0303500 0.0772950
v -0.0241639 -0.0303500 0.0772950
v -0.0245481 -0.0303500 0.0764817
v -0.0241970 -0.0303500 0.0764554
v -0.0241639 -0.0303500 0.0772950
v -0.0241970 -0.0303500 0.0764554
v -0.0237587 -0.0303500 0.0772318
v -0.0237587 -0.0303500 0.0772318
v -0.0241970 -0.0303500 0.0764554
v -0.0238477 -0.0303500 0.0763764
v -0.0237587 -0.0303500 0.0772318
v -0.0238477 -0.0303500 0.0763764
v -0.0233552 -0.0303500 0.0771283
v -0.0233552 -0.0303500 0.0771283
v -0.0238477 -0.0303500 0.0763764
v -0.0234946 -0.0303500 0.0762453
v -0.0233552 -0.0303500 0.0771283
v -0.0234946 -0.0303500 0.0762453
v -0.0229578 -0.0303500 0.0769840
v -0.0229578 -0.0303500 0.0769840
v -0.0234946 -0.0303500 0.0762453
v -0.0231339 -0.0303500 0.0760607
v -0.0254600 -0.0303500 0.0726839
v -0.0249416 -0.0303500 0.0727098
v -0.0252093 -0.0303500 0.0735183
v -0.0254600 -0.0303500 0.0726839
v -0.0252093 -0.0303500 0.0735183
v -0.0256655 -0.0303500 0.0735922
v -0.0254600 -0.0303500 0.0726839
v -0.0256655 -0.0303500 0.0735922
v -0.0263094 -0.0303500 0.0728048
v -0.0263094 -0.0303500 0.0728048
v -0.0256655 -0.0303500 0.0735922
v -0.0260064 -0.0303500 0.0738140
v -0.0263094 -0.0303500 0.0728048
v -0.0260064 -0.0303500 0.0738140
v -0.0269556 -0.0303500 0.0731672
v -0.0269556 -0.0303500 0.0731672
v -0.0260064 -0.0303500 0.0738140
v -0.0262181 -0.0303500 0.0741702
v -0.0269556 -0.0303500 0.0731672
v -0.0262181 -0.0303500 0.0741702
v -0.0273639 -0.0303500 0.0737382
v -0.0273639 -0.0303500 0.0737382
v -0.0262181 -0.0303500 0.0741702
v -0.0275000 -0.0303500 0.0744847
v -0.0275000 -0.0303500 0.0744847
v -0.0262181 -0.0303500 0.0741702
v -0.0262886 -0.0303500 0.0746455
v -0.0275000 -0.0303500 0.0744847
v -0.0262886 -0.0303500 0.0746455
v -0.0274574 -0.0303500 0.0750086
v -0.0231339 -0.0303500 0.0752502
v -0.0249223 -0.0303500 0.0752502
v -0.0243663 -0.0303500 0.0744780
v -0.0231339 -0.0303500 0.0752502
v -0.0243663 -0.0303500 0.0744780
v -0.0235501 -0.0303500 0.0731030
v -0.0235501 -0.0303500 0.0731030
v -0.0243663 -0.0303500 0.0744780
v -0.0245366 -0.0303500 0.0736111
v -0.0235501 -0.0303500 0.0731030
v -0.0245366 -0.0303500 0.0736111
v -0.0239948 -0.0303500 0.0729179
v -0.0239948 -0.0303500 0.0729179
v -0.0245366 -0.0303500 0.0736111
v -0.0244563 -0.0303500 0.0727873
v -0.0244563 -0.0303500 0.0727873
v -0.0245366 -0.0303500 0.0736111
v -0.0247062 -0.0303500 0.0735695
v -0.0244563 -0.0303500 0.0727873
v -0.0247062 -0.0303500 0.0735695
v -0.0248744 -0.0303500 0.0735403
v -0.0244563 -0.0303500 0.0727873
v -0.0248744 -0.0303500 0.0735403
v -0.0249416 -0.0303500 0.0727098
v -0.0249416 -0.0303500 0.0727098
v -0.0248744 -0.0303500 0.0735403
v -0.0250419 -0.0303500 0.0735238
v -0.0249416 -0.0303500 0.0727098
v -0.0250419 -0.0303500 0.0735238
v -0.0252093 -0.0303500 0.0735183
v -0.0250686 -0.0303500 0.0744780
v -0.0243663 -0.0303500 0.0744780
v -0.0249223 -0.0303500 0.0752502
v -0.0216956 -0.0303500 0.0772357
v -0.0225664 -0.0303500 0.0727710
v -0.0212440 -0.0303500 0.0736408
v -0.0216956 -0.0303500 0.0772357
v -0.0212440 -0.0303500 0.0736408
v -0.0205445 -0.0303500 0.0772357
v -0.0192289 -0.0303500 0.0736408
v -0.0212440 -0.0303500 0.0736408
v -0.0193935 -0.0303500 0.0727710
v -0.0193935 -0.0303500 0.0727710
v -0.0212440 -0.0303500 0.0736408
v -0.0225664 -0.0303500 0.0727710
v -0.0191905 -0.0303500 0.0727710
v -0.0180088 -0.0303500 0.0727710
v -0.0175667 -0.0303500 0.0735843
v -0.0191905 -0.0303500 0.0727710
v -0.0175667 -0.0303500 0.0735843
v -0.0171333 -0.0303500 0.0743948
v -0.0191905 -0.0303500 0.0727710
v -0.0171333 -0.0303500 0.0743948
v -0.0166663 -0.0303500 0.0772357
v -0.0166663 -0.0303500 0.0772357
v -0.0171333 -0.0303500 0.0743948
v -0.0162032 -0.0303500 0.0761142
v -0.0166663 -0.0303500 0.0772357
v -0.0162032 -0.0303500 0.0761142
v -0.0153507 -0.0303500 0.0772357
v -0.0153507 -0.0303500 0.0772357
v -0.0162032 -0.0303500 0.0761142
v -0.0159334 -0.0303500 0.0743948
v -0.0153507 -0.0303500 0.0772357
v -0.0159334 -0.0303500 0.0743948
v -0.0145613 -0.0303500 0.0727710
v -0.0175667 -0.0303500 0.0735843
v -0.0157841 -0.0303500 0.0735843
v -0.0171333 -0.0303500 0.0743948
v -0.0171333 -0.0303500 0.0743948
v -0.0157841 -0.0303500 0.0735843
v -0.0159334 -0.0303500 0.0743948
v -0.0159334 -0.0303500 0.0743948
v -0.0157841 -0.0303500 0.0735843
v -0.0145613 -0.0303500 0.0727710
v -0.0145613 -0.0303500 0.0727710
v -0.0157841 -0.0303500 0.0735843
v -0.0156559 -0.0303500 0.0727710
v -0.0133369 -0.0303500 0.0764068
v -0.0134703 -0.0303500 0.0757794
v -0.0123872 -0.0303500 0.0759736
v -0.0133369 -0.0303500 0.0764068
v -0.0123872 -0.0303500 0.0759736
v -0.0123271 -0.0303500 0.0761865
v -0.0133369 -0.0303500 0.0764068
v -0.0123271 -0.0303500 0.0761865
v -0.0129364 -0.0303500 0.0768960
v -0.0129364 -0.0303500 0.0768960
v -0.0123271 -0.0303500 0.0761865
v -0.0121470 -0.0303500 0.0763468
v -0.0129364 -0.0303500 0.0768960
v -0.0121470 -0.0303500 0.0763468
v -0.0123102 -0.0303500 0.0772110
v -0.0123102 -0.0303500 0.0772110
v -0.0121470 -0.0303500 0.0763468
v -0.0118585 -0.0303500 0.0764480
v -0.0123102 -0.0303500 0.0772110
v -0.0118585 -0.0303500 0.0764480
v -0.0114992 -0.0303500 0.0773161
v -0.0114992 -0.0303500 0.0773161
v -0.0118585 -0.0303500 0.0764480
v -0.0114753 -0.0303500 0.0764817
v -0.0114992 -0.0303500 0.0773161
v -0.0114753 -0.0303500 0.0764817
v -0.0111328 -0.0303500 0.0773022
v -0.0111328 -0.0303500 0.0773022
v -0.0114753 -0.0303500 0.0764817
v -0.0111579 -0.0303500 0.0764611
v -0.0111328 -0.0303500 0.0773022
v -0.0111579 -0.0303500 0.0764611
v -0.0107567 -0.0303500 0.0772606
v -0.0107567 -0.0303500 0.0772606
v -0.0111579 -0.0303500 0.0764611
v -0.0108333 -0.0303500 0.0763994
v -0.0107567 -0.0303500 0.0772606
v -0.0108333 -0.0303500 0.0763994
v -0.0103718 -0.0303500 0.0771914
v -0.0103718 -0.0303500 0.0771914
v -0.0108333 -0.0303500 0.0763994
v -0.0105017 -0.0303500 0.0762958
v -0.0103718 -0.0303500 0.0771914
v -0.0105017 -0.0303500 0.0762958
v -0.0099807 -0.0303500 0.0770950
v -0.0099807 -0.0303500 0.0770950
v -0.0105017 -0.0303500 0.0762958
v -0.0101654 -0.0303500 0.0761497
v -0.0122590 -0.0303500 0.0726839
v -0.0114236 -0.0303500 0.0727937
v -0.0119073 -0.0303500 0.0735587
v -0.0122590 -0.0303500 0.0726839
v -0.0119073 -0.0303500 0.0735587
v -0.0122647 -0.0303500 0.0735183
v -0.0122590 -0.0303500 0.0726839
v -0.0122647 -0.0303500 0.0735183
v -0.0126915 -0.0303500 0.0727043
v -0.0126915 -0.0303500 0.0727043
v -0.0122647 -0.0303500 0.0735183
v -0.0126321 -0.0303500 0.0735468
v -0.0126915 -0.0303500 0.0727043
v -0.0126321 -0.0303500 0.0735468
v -0.0131220 -0.0303500 0.0727653
v -0.0131220 -0.0303500 0.0727653
v -0.0126321 -0.0303500 0.0735468
v -0.0130053 -0.0303500 0.0736322
v -0.0131220 -0.0303500 0.0727653
v -0.0130053 -0.0303500 0.0736322
v -0.0135459 -0.0303500 0.0728653
v -0.0135459 -0.0303500 0.0728653
v -0.0130053 -0.0303500 0.0736322
v -0.0133859 -0.0303500 0.0737750
v -0.0135459 -0.0303500 0.0728653
v -0.0133859 -0.0303500 0.0737750
v -0.0139602 -0.0303500 0.0730045
v -0.0139602 -0.0303500 0.0730045
v -0.0133859 -0.0303500 0.0737750
v -0.0137775 -0.0303500 0.0739757
v -0.0134703 -0.0303500 0.0757794
v -0.0134067 -0.0303500 0.0753775
v -0.0123606 -0.0303500 0.0758380
v -0.0134703 -0.0303500 0.0757794
v -0.0123606 -0.0303500 0.0758380
v -0.0123872 -0.0303500 0.0759736
v -0.0102257 -0.0303500 0.0742905
v -0.0102948 -0.0303500 0.0746969
v -0.0114045 -0.0303500 0.0742386
v -0.0102257 -0.0303500 0.0742905
v -0.0114045 -0.0303500 0.0742386
v -0.0113767 -0.0303500 0.0740924
v -0.0102257 -0.0303500 0.0742905
v -0.0113767 -0.0303500 0.0740924
v -0.0103637 -0.0303500 0.0736351
v -0.0103637 -0.0303500 0.0736351
v -0.0113767 -0.0303500 0.0740924
v -0.0114385 -0.0303500 0.0738640
v -0.0103637 -0.0303500 0.0736351
v -0.0114385 -0.0303500 0.0738640
v -0.0107778 -0.0303500 0.0731231
v -0.0107778 -0.0303500 0.0731231
v -0.0114385 -0.0303500 0.0738640
v -0.0116236 -0.0303500 0.0736800
v -0.0107778 -0.0303500 0.0731231
v -0.0116236 -0.0303500 0.0736800
v -0.0114236 -0.0303500 0.0727937
v -0.0114236 -0.0303500 0.0727937
v -0.0116236 -0.0303500 0.0736800
v -0.0119073 -0.0303500 0.0735587
v -0.0134067 -0.0303500 0.0753775
v -0.0132158 -0.0303500 0.0750579
v -0.0123606 -0.0303500 0.0758380
v -0.0123606 -0.0303500 0.0758380
v -0.0132158 -0.0303500 0.0750579
v -0.0122810 -0.0303500 0.0757353
v -0.0122810 -0.0303500 0.0757353
v -0.0132158 -0.0303500 0.0750579
v -0.0128950 -0.0303500 0.0748177
v -0.0122810 -0.0303500 0.0757353
v -0.0128950 -0.0303500 0.0748177
v -0.0124417 -0.0303500 0.0746522
v -0.0122810 -0.0303500 0.0757353
v -0.0124417 -0.0303500 0.0746522
v -0.0121185 -0.0303500 0.0756514
v -0.0121185 -0.0303500 0.0756514
v -0.0124417 -0.0303500 0.0746522
v -0.0118437 -0.0303500 0.0755698
v -0.0118437 -0.0303500 0.0755698
v -0.0124417 -0.0303500 0.0746522
v -0.0119719 -0.0303500 0.0745355
v -0.0118437 -0.0303500 0.0755698
v -0.0119719 -0.0303500 0.0745355
v -0.0113710 -0.0303500 0.0754531
v -0.0113710 -0.0303500 0.0754531
v -0.0119719 -0.0303500 0.0745355
v -0.0116638 -0.0303500 0.0744407
v -0.0113710 -0.0303500 0.0754531
v -0.0116638 -0.0303500 0.0744407
v -0.0114877 -0.0303500 0.0743479
v -0.0113710 -0.0303500 0.0754531
v -0.0114877 -0.0303500 0.0743479
v -0.0108577 -0.0303500 0.0752703
v -0.0108577 -0.0303500 0.0752703
v -0.0114877 -0.0303500 0.0743479
v -0.0105022 -0.0303500 0.0750206
v -0.0105022 -0.0303500 0.0750206
v -0.0114877 -0.0303500 0.0743479
v -0.0114045 -0.0303500 0.0742386
v -0.0105022 -0.0303500 0.0750206
v -0.0114045 -0.0303500 0.0742386
v -0.0102948 -0.0303500 0.0746969
v -0.0091484 -0.0303500 0.0764068
v -0.0092818 -0.0303500 0.0757794
v -0.0081987 -0.0303500 0.0759736
v -0.0091484 -0.0303500 0.0764068
v -0.0081987 -0.0303500 0.0759736
v -0.0081387 -0.0303500 0.0761865
v -0.0091484 -0.0303500 0.0764068
v -0.0081387 -0.0303500 0.0761865
v -0.0087479 -0.0303500 0.0768960
v -0.0087479 -0.0303500 0.0768960
v -0.0081387 -0.0303500 0.0761865
v -0.0079585 -0.0303500 0.0763468
v -0.0087479 -0.0303500 0.0768960
v -0.0079585 -0.0303500 0.0763468
v -0.0081217 -0.0303500 0.0772110
v -0.0081217 -0.0303500 0.0772110
v -0.0079585 -0.0303500 0.0763468
v -0.0076700 -0.0303500 0.0764480
v -0.0081217 -0.0303500 0.0772110
v -0.0076700 -0.0303500 0.0764480
v -0.0073107 -0.0303500 0.0773161
v -0.0073107 -0.0303500 0.0773161
v -0.0076700 -0.0303500 0.0764480
v -0.0072868 -0.0303500 0.0764817
v -0.0073107 -0.0303500 0.0773161
v -0.0072868 -0.0303500 0.0764817
v -0.0069443 -0.0303500 0.0773022
v -0.0069443 -0.0303500 0.0773022
v -0.0072868 -0.0303500 0.0764817
v -0.0069694 -0.0303500 0.0764611
v -0.0069443 -0.0303500 0.0773022
v -0.0069694 -0.0303500 0.0764611
v -0.0065682 -0.0303500 0.0772606
v -0.0065682 -0.0303500 0.0772606
v -0.0069694 -0.0303500 0.0764611
v -0.0066448 -0.0303500 0.0763994
v -0.0065682 -0.0303500 0.0772606
v -0.0066448 -0.0303500 0.0763994
v -0.0061833 -0.0303500 0.0771914
v -0.0061833 -0.0303500 0.0771914
v -0.0066448 -0.0303500 0.0763994
v -0.0063132 -0.0303500 0.0762958
v -0.0061833 -0.0303500 0.0771914
v -0.0063132 -0.0303500 0.0762958
v -0.0057922 -0.0303500 0.0770950
v -0.0057922 -0.0303500 0.0770950
v -0.0063132 -0.0303500 0.0762958
v -0.0059769 -0.0303500 0.0761497
v -0.0080705 -0.0303500 0.0726839
v -0.0072351 -0.0303500 0.0727937
v -0.0077188 -0.0303500 0.0735587
v -0.0080705 -0.0303500 0.0726839
v -0.0077188 -0.0303500 0.0735587
v -0.0080762 -0.0303500 0.0735183
v -0.0080705 -0.0303500 0.0726839
v -0.0080762 -0.0303500 0.0735183
v -0.0085030 -0.0303500 0.0727043
v -0.0085030 -0.0303500 0.0727043
v -0.0080762 -0.0303500 0.0735183
v -0.0084436 -0.0303500 0.0735468
v -0.0085030 -0.0303500 0.0727043
v -0.0084436 -0.0303500 0.0735468
v -0.0089336 -0.0303500 0.0727653
v -0.0089336 -0.0303500 0.0727653
v -0.0084436 -0.0303500 0.0735468
v -0.0088168 -0.0303500 0.0736322
v -0.0089336 -0.0303500 0.0727653
v -0.0088168 -0.0303500 0.0736322
v -0.0093574 -0.0303500 0.0728653
v -0.0093574 -0.0303500 0.0728653
v -0.0088168 -0.0303500 0.0736322
v -0.0091974 -0.0303500 0.0737750
v -0.0093574 -0.0303500 0.0728653
v -0.0091974 -0.0303500 0.0737750
v -0.0097718 -0.0303500 0.0730045
v -0.0097718 -0.0303500 0.0730045
v -0.0091974 -0.0303500 0.0737750
v -0.0095890 -0.0303500 0.0739757
v -0.0092818 -0.0303500 0.0757794
v -0.0092182 -0.0303500 0.0753775
v -0.0081721 -0.0303500 0.0758380
v -0.0092818 -0.0303500 0.0757794
v -0.0081721 -0.0303500 0.0758380
v -0.0081987 -0.0303500 0.0759736
v -0.0060372 -0.0303500 0.0742905
v -0.0061063 -0.0303500 0.0746969
v -0.0072160 -0.0303500 0.0742386
v -0.0060372 -0.0303500 0.0742905
v -0.0072160 -0.0303500 0.0742386
v -0.0071883 -0.0303500 0.0740924
v -0.0060372 -0.0303500 0.0742905
v -0.0071883 -0.0303500 0.0740924
v -0.0061752 -0.0303500 0.0736351
v -0.0061752 -0.0303500 0.0736351
v -0.0071883 -0.0303500 0.0740924
v -0.0072500 -0.0303500 0.0738640
v -0.0061752 -0.0303500 0.0736351
v -0.0072500 -0.0303500 0.0738640
v -0.0065893 -0.0303500 0.0731231
v -0.0065893 -0.0303500 0.0731231
v -0.0072500 -0.0303500 0.0738640
v -0.0074351 -0.0303500 0.0736800
v -0.0065893 -0.0303500 0.0731231
v -0.0074351 -0.0303500 0.0736800
v -0.0072351 -0.0303500 0.0727937
v -0.0072351 -0.0303500 0.0727937
v -0.0074351 -0.0303500 0.0736800
v -0.0077188 -0.0303500 0.0735587
v -0.0092182 -0.0303500 0.0753775
v -0.0090273 -0.0303500 0.0750579
v -0.0081721 -0.0303500 0.0758380
v -0.0081721 -0.0303500 0.0758380
v -0.0090273 -0.0303500 0.0750579
v -0.0080925 -0.0303500 0.0757353
v -0.0080925 -0.0303500 0.0757353
v -0.0090273 -0.0303500 0.0750579
v -0.0087065 -0.0303500 0.0748177
v -0.0080925 -0.0303500 0.0757353
v -0.0087065 -0.0303500 0.0748177
v -0.0082532 -0.0303500 0.0746522
v -0.0080925 -0.0303500 0.0757353
v -0.0082532 -0.0303500 0.0746522
v -0.0079301 -0.0303500 0.0756514
v -0.0079301 -0.0303500 0.0756514
v -0.0082532 -0.0303500 0.0746522
v -0.0076552 -0.0303500 0.0755698
v -0.0076552 -0.0303500 0.0755698
v -0.0082532 -0.0303500 0.0746522
v -0.0077834 -0.0303500 0.0745355
v -0.0076552 -0.0303500 0.0755698
v -0.0077834 -0.0303500 0.0745355
v -0.0071825 -0.0303500 0.0754531
v -0.0071825 -0.0303500 0.0754531
v -0.0077834 -0.0303500 0.0745355
v -0.0074753 -0.0303500 0.0744407
v -0.0071825 -0.0303500 0.0754531
v -0.0074753 -0.0303500 0.0744407
v -0.0072993 -0.0303500 0.0743479
v -0.0071825 -0.0303500 0.0754531
v -0.0072993 -0.0303500 0.0743479
v -0.0066692 -0.0303500 0.0752703
v -0.0066692 -0.0303500 0.0752703
v -0.0072993 -0.0303500 0.0743479
v -0.0063137 -0.0303500 0.0750206
v -0.0063137 -0.0303500 0.0750206
v -0.0072993 -0.0303500 0.0743479
v -0.0072160 -0.0303500 0.0742386
v -0.0063137 -0.0303500 0.0750206
v -0.0072160 -0.0303500 0.0742386
v -0.0061063 -0.0303500 0.0746969
v -0.0029308 -0.0303500 0.0754933
v -0.0030585 -0.0303500 0.0750043
v -0.0017790 -0.0303500 0.0753509
v -0.0029308 -0.0303500 0.0754933
v -0.0017790 -0.0303500 0.0753509
v -0.0027195 -0.0303500 0.0759470
v -0.0027195 -0.0303500 0.0759470
v -0.0017790 -0.0303500 0.0753509
v -0.0024284 -0.0303500 0.0763592
v -0.0024284 -0.0303500 0.0763592
v -0.0017790 -0.0303500 0.0753509
v -0.0014295 -0.0303500 0.0759497
v -0.0024284 -0.0303500 0.0763592
v -0.0014295 -0.0303500 0.0759497
v -0.0019964 -0.0303500 0.0767663
v -0.0019964 -0.0303500 0.0767663
v -0.0014295 -0.0303500 0.0759497
v -0.0014850 -0.0303500 0.0770673
v -0.0014850 -0.0303500 0.0770673
v -0.0014295 -0.0303500 0.0759497
v -0.0009066 -0.0303500 0.0763487
v -0.0014850 -0.0303500 0.0770673
v -0.0009066 -0.0303500 0.0763487
v -0.0009116 -0.0303500 0.0772539
v -0.0009116 -0.0303500 0.0772539
v -0.0009066 -0.0303500 0.0763487
v -0.0002717 -0.0303500 0.0764817
v -0.0009116 -0.0303500 0.0772539
v -0.0002717 -0.0303500 0.0764817
v -0.0002956 -0.0303500 0.0773161
v -0.0002956 -0.0303500 0.0773161
v -0.0002717 -0.0303500 0.0764817
v 0.0000515 -0.0303500 0.0772955
v 0.0000515 -0.0303500 0.0772955
v -0.0002717 -0.0303500 0.0764817
v 0.0000491 -0.0303500 0.0764563
v 0.0000515 -0.0303500 0.0772955
v 0.0000491 -0.0303500 0.0764563
v 0.0004000 -0.0303500 0.0772338
v 0.0004000 -0.0303500 0.0772338
v 0.0000491 -0.0303500 0.0764563
v 0.0003493 -0.0303500 0.0763803
v 0.0004000 -0.0303500 0.0772338
v 0.0003493 -0.0303500 0.0763803
v 0.0007531 -0.0303500 0.0771302
v 0.0007531 -0.0303500 0.0771302
v 0.0003493 -0.0303500 0.0763803
v 0.0006392 -0.0303500 0.0762496
v 0.0007531 -0.0303500 0.0771302
v 0.0006392 -0.0303500 0.0762496
v 0.0011119 -0.0303500 0.0769840
v 0.0011119 -0.0303500 0.0769840
v 0.0006392 -0.0303500 0.0762496
v 0.0009272 -0.0303500 0.0760607
v -0.0011242 -0.0303500 0.0726839
v -0.0007738 -0.0303500 0.0727028
v -0.0008161 -0.0303500 0.0735183
v -0.0011242 -0.0303500 0.0726839
v -0.0008161 -0.0303500 0.0735183
v -0.0012668 -0.0303500 0.0735915
v -0.0011242 -0.0303500 0.0726839
v -0.0012668 -0.0303500 0.0735915
v -0.0019342 -0.0303500 0.0728074
v -0.0019342 -0.0303500 0.0728074
v -0.0012668 -0.0303500 0.0735915
v -0.0016084 -0.0303500 0.0738111
v -0.0019342 -0.0303500 0.0728074
v -0.0016084 -0.0303500 0.0738111
v -0.0025633 -0.0303500 0.0731777
v -0.0025633 -0.0303500 0.0731777
v -0.0016084 -0.0303500 0.0738111
v -0.0018237 -0.0303500 0.0741599
v -0.0025633 -0.0303500 0.0731777
v -0.0018237 -0.0303500 0.0741599
v -0.0029666 -0.0303500 0.0737513
v -0.0029666 -0.0303500 0.0737513
v -0.0018237 -0.0303500 0.0741599
v -0.0031011 -0.0303500 0.0744847
v -0.0031011 -0.0303500 0.0744847
v -0.0018237 -0.0303500 0.0741599
v -0.0018955 -0.0303500 0.0746187
v -0.0031011 -0.0303500 0.0744847
v -0.0018955 -0.0303500 0.0746187
v -0.0030585 -0.0303500 0.0750043
v -0.0030585 -0.0303500 0.0750043
v -0.0018955 -0.0303500 0.0746187
v -0.0017790 -0.0303500 0.0753509
v 0.0005857 -0.0303500 0.0739700
v 0.0001850 -0.0303500 0.0737676
v 0.0003885 -0.0303500 0.0729806
v 0.0003885 -0.0303500 0.0729806
v 0.0001850 -0.0303500 0.0737676
v -0.0001750 -0.0303500 0.0736274
v 0.0003885 -0.0303500 0.0729806
v -0.0001750 -0.0303500 0.0736274
v -0.0000157 -0.0303500 0.0728521
v -0.0000157 -0.0303500 0.0728521
v -0.0001750 -0.0303500 0.0736274
v -0.0005052 -0.0303500 0.0735456
v -0.0000157 -0.0303500 0.0728521
v -0.0005052 -0.0303500 0.0735456
v -0.0004037 -0.0303500 0.0727595
v -0.0004037 -0.0303500 0.0727595
v -0.0005052 -0.0303500 0.0735456
v -0.0008161 -0.0303500 0.0735183
v -0.0004037 -0.0303500 0.0727595
v -0.0008161 -0.0303500 0.0735183
v -0.0007738 -0.0303500 0.0727028
v 0.0021710 -0.0303500 0.0772357
v 0.0013003 -0.0303500 0.0727710
v 0.0026227 -0.0303500 0.0736408
v 0.0021710 -0.0303500 0.0772357
v 0.0026227 -0.0303500 0.0736408
v 0.0033221 -0.0303500 0.0772357
v 0.0046378 -0.0303500 0.0736408
v 0.0026227 -0.0303500 0.0736408
v 0.0044732 -0.0303500 0.0727710
v 0.0044732 -0.0303500 0.0727710
v 0.0026227 -0.0303500 0.0736408
v 0.0013003 -0.0303500 0.0727710
v 0.0060732 -0.0303500 0.0772357
v 0.0052024 -0.0303500 0.0727710
v 0.0067219 -0.0303500 0.0746637
v 0.0060732 -0.0303500 0.0772357
v 0.0067219 -0.0303500 0.0746637
v 0.0068922 -0.0303500 0.0755344
v 0.0060732 -0.0303500 0.0772357
v 0.0068922 -0.0303500 0.0755344
v 0.0070539 -0.0303500 0.0763649
v 0.0060732 -0.0303500 0.0772357
v 0.0070539 -0.0303500 0.0763649
v 0.0091772 -0.0303500 0.0772357
v 0.0091772 -0.0303500 0.0772357
v 0.0070539 -0.0303500 0.0763649
v 0.0090059 -0.0303500 0.0763649
v 0.0083754 -0.0303500 0.0727710
v 0.0085399 -0.0303500 0.0736408
v 0.0065248 -0.0303500 0.0736408
v 0.0083754 -0.0303500 0.0727710
v 0.0065248 -0.0303500 0.0736408
v 0.0052024 -0.0303500 0.0727710
v 0.0052024 -0.0303500 0.0727710
v 0.0065248 -0.0303500 0.0736408
v 0.0067219 -0.0303500 0.0746637
v 0.0067219 -0.0303500 0.0746637
v 0.0085581 -0.0303500 0.0746637
v 0.0068922 -0.0303500 0.0755344
v 0.0068922 -0.0303500 0.0755344
v 0.0085581 -0.0303500 0.0746637
v 0.0087313 -0.0303500 0.0755344
v 0.0088594 -0.0303500 0.0727710
v 0.0100411 -0.0303500 0.0727710
v 0.0104832 -0.0303500 0.0735843
v 0.0088594 -0.0303500 0.0727710
v 0.0104832 -0.0303500 0.0735843
v 0.0109166 -0.0303500 0.0743948
v 0.0088594 -0.0303500 0.0727710
v 0.0109166 -0.0303500 0.0743948
v 0.0113836 -0.0303500 0.0772357
v 0.0113836 -0.0303500 0.0772357
v 0.0109166 -0.0303500 0.0743948
v 0.0118467 -0.0303500 0.0761142
v 0.0113836 -0.0303500 0.0772357
v 0.0118467 -0.0303500 0.0761142
v 0.0126992 -0.0303500 0.0772357
v 0.0126992 -0.0303500 0.0772357
v 0.0118467 -0.0303500 0.0761142
v 0.0121165 -0.0303500 0.0743948
v 0.0126992 -0.0303500 0.0772357
v 0.0121165 -0.0303500 0.0743948
v 0.0134886 -0.0303500 0.0727710
v 0.0104832 -0.0303500 0.0735843
v 0.0122658 -0.0303500 0.0735843
v 0.0109166 -0.0303500 0.0743948
v 0.0109166 -0.0303500 0.0743948
v 0.0122658 -0.0303500 0.0735843
v 0.0121165 -0.0303500 0.0743948
v 0.0121165 -0.0303500 0.0743948
v 0.0122658 -0.0303500 0.0735843
v 0.0134886 -0.0303500 0.0727710
v 0.0134886 -0.0303500 0.0727710
v 0.0122658 -0.0303500 0.0735843
v 0.0123940 -0.0303500 0.0727710
v 0.0149958 -0.0303500 0.0772357
v 0.0141251 -0.0303500 0.0727710
v 0.0158148 -0.0303500 0.0758626
v 0.0149958 -0.0303500 0.0772357
v 0.0158148 -0.0303500 0.0758626
v 0.0162818 -0.0303500 0.0772357
v 0.0179046 -0.0303500 0.0772357
v 0.0173037 -0.0303500 0.0741431
v 0.0189935 -0.0303500 0.0772357
v 0.0189935 -0.0303500 0.0772357
v 0.0173037 -0.0303500 0.0741431
v 0.0181237 -0.0303500 0.0727710
v 0.0168377 -0.0303500 0.0727710
v 0.0181237 -0.0303500 0.0727710
v 0.0173037 -0.0303500 0.0741431
v 0.0152168 -0.0303500 0.0727710
v 0.0158148 -0.0303500 0.0758626
v 0.0141251 -0.0303500 0.0727710
v 0.0201209 -0.0303500 0.0772357
v 0.0192502 -0.0303500 0.0727710
v 0.0207696 -0.0303500 0.0746637
v 0.0201209 -0.0303500 0.0772357
v 0.0207696 -0.0303500 0.0746637
v 0.0209400 -0.0303500 0.0755344
v 0.0201209 -0.0303500 0.0772357
v 0.0209400 -0.0303500 0.0755344
v 0.0211017 -0.0303500 0.0763649
v 0.0201209 -0.0303500 0.0772357
v 0.0211017 -0.0303500 0.0763649
v 0.0232249 -0.0303500 0.0772357
v 0.0232249 -0.0303500 0.0772357
v 0.0211017 -0.0303500 0.0763649
v 0.0230536 -0.0303500 0.0763649
v 0.0224231 -0.0303500 0.0727710
v 0.0225877 -0.0303500 0.0736408
v 0.0205725 -0.0303500 0.0736408
v 0.0224231 -0.0303500 0.0727710
v 0.0205725 -0.0303500 0.0736408
v 0.0192502 -0.0303500 0.0727710
v 0.0192502 -0.0303500 0.0727710
v 0.0205725 -0.0303500 0.0736408
v 0.0207696 -0.0303500 0.0746637
v 0.0207696 -0.0303500 0.0746637
v 0.0226058 -0.0303500 0.0746637
v 0.0209400 -0.0303500 0.0755344
v 0.0209400 -0.0303500 0.0755344
v 0.0226058 -0.0303500 0.0746637
v 0.0227790 -0.0303500 0.0755344
v 0.0243041 -0.0303500 0.0772357
v 0.0234334 -0.0303500 0.0727710
v 0.0249165 -0.0303500 0.0744608
v 0.0243041 -0.0303500 0.0772357
v 0.0249165 -0.0303500 0.0744608
v 0.0250696 -0.0303500 0.0752560
v 0.0243041 -0.0303500 0.0772357
v 0.0250696 -0.0303500 0.0752560
v 0.0252964 -0.0303500 0.0764013
v 0.0243041 -0.0303500 0.0772357
v 0.0252964 -0.0303500 0.0764013
v 0.0260054 -0.0303500 0.0772357
v 0.0260054 -0.0303500 0.0772357
v 0.0252964 -0.0303500 0.0764013
v 0.0257719 -0.0303500 0.0764013
v 0.0260054 -0.0303500 0.0772357
v 0.0257719 -0.0303500 0.0764013
v 0.0260312 -0.0303500 0.0763755
v 0.0260054 -0.0303500 0.0772357
v 0.0260312 -0.0303500 0.0763755
v 0.0266520 -0.0303500 0.0771668
v 0.0266520 -0.0303500 0.0771668
v 0.0260312 -0.0303500 0.0763755
v 0.0262102 -0.0303500 0.0762980
v 0.0266520 -0.0303500 0.0771668
v 0.0262102 -0.0303500 0.0762980
v 0.0271201 -0.0303500 0.0769601
v 0.0271201 -0.0303500 0.0769601
v 0.0262102 -0.0303500 0.0762980
v 0.0263142 -0.0303500 0.0761652
v 0.0271201 -0.0303500 0.0769601
v 0.0263142 -0.0303500 0.0761652
v 0.0274050 -0.0303500 0.0766202
v 0.0274050 -0.0303500 0.0766202
v 0.0263142 -0.0303500 0.0761652
v 0.0275000 -0.0303500 0.0761497
v 0.0262867 -0.0303500 0.0727710
v 0.0274321 -0.0303500 0.0727710
v 0.0270522 -0.0303500 0.0740388
v 0.0262867 -0.0303500 0.0727710
v 0.0270522 -0.0303500 0.0740388
v 0.0259518 -0.0303500 0.0738800
v 0.0245854 -0.0303500 0.0727710
v 0.0249165 -0.0303500 0.0744608
v 0.0234334 -0.0303500 0.0727710
v 0.0249165 -0.0303500 0.0744608
v 0.0252849 -0.0303500 0.0744608
v 0.0250696 -0.0303500 0.0752560
v 0.0250696 -0.0303500 0.0752560
v 0.0252849 -0.0303500 0.0744608
v 0.0255538 -0.0303500 0.0752560
v 0.0263142 -0.0303500 0.0761652
v 0.0263489 -0.0303500 0.0759736
v 0.0275000 -0.0303500 0.0761497
v 0.0275000 -0.0303500 0.0761497
v 0.0263489 -0.0303500 0.0759736
v 0.0274251 -0.0303500 0.0756566
v 0.0270522 -0.0303500 0.0740388
v 0.0269257 -0.0303500 0.0743797
v 0.0259518 -0.0303500 0.0738800
v 0.0259518 -0.0303500 0.0738800
v 0.0269257 -0.0303500 0.0743797
v 0.0267795 -0.0303500 0.0746197
v 0.0259518 -0.0303500 0.0738800
v 0.0267795 -0.0303500 0.0746197
v 0.0258387 -0.0303500 0.0741601
v 0.0252849 -0.0303500 0.0744608
v 0.0255270 -0.0303500 0.0744297
v 0.0255538 -0.0303500 0.0752560
v 0.0255538 -0.0303500 0.0752560
v 0.0255270 -0.0303500 0.0744297
v 0.0258978 -0.0303500 0.0753014
v 0.0258978 -0.0303500 0.0753014
v 0.0255270 -0.0303500 0.0744297
v 0.0257040 -0.0303500 0.0743364
v 0.0258978 -0.0303500 0.0753014
v 0.0257040 -0.0303500 0.0743364
v 0.0263910 -0.0303500 0.0748579
v 0.0258978 -0.0303500 0.0753014
v 0.0263910 -0.0303500 0.0748579
v 0.0261470 -0.0303500 0.0754378
v 0.0261470 -0.0303500 0.0754378
v 0.0263910 -0.0303500 0.0748579
v 0.0268489 -0.0303500 0.0749835
v 0.0261470 -0.0303500 0.0754378
v 0.0268489 -0.0303500 0.0749835
v 0.0262984 -0.0303500 0.0756631
v 0.0262984 -0.0303500 0.0756631
v 0.0268489 -0.0303500 0.0749835
v 0.0272005 -0.0303500 0.0752588
v 0.0262984 -0.0303500 0.0756631
v 0.0272005 -0.0303500 0.0752588
v 0.0274251 -0.0303500 0.0756566
v 0.0262984 -0.0303500 0.0756631
v 0.0274251 -0.0303500 0.0756566
v 0.0263489 -0.0303500 0.0759736
v 0.0267795 -0.0303500 0.0746197
v 0.0266049 -0.0303500 0.0747744
v 0.0258387 -0.0303500 0.0741601
v 0.0258387 -0.0303500 0.0741601
v 0.0266049 -0.0303500 0.0747744
v 0.0263910 -0.0303500 0.0748579
v 0.0258387 -0.0303500 0.0741601
v 0.0263910 -0.0303500 0.0748579
v 0.0257040 -0.0303500 0.0743364
f 1 2 3
f 3 2 1
f 4 5 6
f 6 5 4
f 7 8 9
f 9 8 7
f 10 11 12
f 12 11 10
f 13 14 15
f 15 14 13
f 16 17 18
f 18 17 16
f 19 20 21
f 21 20 19
f 22 23 24
f 24 23 22
f 25 26 27
f 27 26 25
f 28 29 30
f 30 29 28
f 31 32 33
f 33 32 31
f 34 35 36
f 36 35 34
f 37 38 39
f 39 38 37
f 40 41 42
f 42 41 40
f 43 44 45
f 45 44 43
f 46 47 48
f 48 47 46
f 49 50 51
f 51 50 49
f 52 53 54
f 54 53 52
f 55 56 57
f 57 56 55
f 58 59 60
f 60 59 58
f 61 62 63
f 63 62 61
f 64 65 66
f 66 65 64
f 67 68 69
f 69 68 67
f 70 71 72
f 72 71 70
f 73 74 75
f 75 74 73
f 76 77 78
f 78 77 76
f 79 80 81
f 81 80 79
f 82 83 84
f 84 83 82
f 85 86 87
f 87 86 85
f 88 89 90
f 90 89 88
f 91 92 93
f 93 92 91
f 94 95 96
f 96 95 94
f 97 98 99
f 99 98 97
f 100 101 102
f 102 101 100
f 103 104 105
f 105 104 103
f 106 107 108
f 108 107 106
f 109 110 111
f 111 110 109
f 112 113 114
f 114 113 112
f 115 116 117
f 117 116 115
f 118 119 120
f 120 119 118
f 121 122 123
f 123 122 121
f 124 125 126
f 126 125 124
f 127 128 129
f 129 128 127
f 130 131 132
f 132 131 130
f 133 134 135
f 135 134 133
f 136 137 138
f 138 137 136
f 139 140 141
f 141 140 139
f 142 143 144
f 144 143 142
f 145 146 147
f 147 146 145
f 148 149 150
f 150 149 148
f 151 152 153
f 153 152 151
f 154 155 156
f 156 155 154
f 157 158 159
f 159 158 157
f 160 161 162
f 162 161 160
f 163 164 165
f 165 164 163
f 166 167 168
f 168 167 166
f 169 170 171
f 171 170 169
f 172 173 174
f 174 173 172
f 175 176 177
f 177 176 175
f 178 179 180
f 180 179 178
f 181 182 183
f 183 182 181
f 184 185 186
f 186 185 184
f 187 188 189
f 189 188 187
f 190 191 192
f 192 191 190
f 193 194 195
f 195 194 193
f 196 197 198
f 198 197 196
f 199 200 201
f 201 200 199
f 202 203 204
f 204 203 202
f 205 206 207
f 207 206 205
f 208 209 210
f 210 209 208
f 211 212 213
f 213 212 211
f 214 215 216
f 216 215 214
f 217 218 219
f 219 218 217
f 220 221 222
f 222 221 220
f 223 224 225
f 225 224 223
f 226 227 228
f 228 227 226
f 229 230 231
f 231 230 229
f 232 233 234
f 234 233 232
f 235 236 237
f 237 236 235
f 238 239 240
f 240 239 238
f 241 242 243
f 243 242 241
f 244 245 246
f 246 245 244
f 247 248 249
f 249 248 247
f 250 251 252
f 252 251 250
f 253 254 255
f 255 254 253
f 256 257 258
f 258 257 256
f 259 260 261
f 261 260 259
f 262 263 264
f 264 263 262
f 265 266 267
f 267 266 265
f 268 269 270
f 270 269 268
f 271 272 273
f 273 272 271
f 274 275 276
f 276 275 274
f 277 278 279
f 279 278 277
f 280 281 282
f 282 281 280
f 283 284 285
f 285 284 283
f 286 287 288
f 288 287 286
f 289 290 291
f 291 290 289
f 292 293 294
f 294 293 292
f 295 296 297
f 297 296 295
f 298 299 300
f 300 299 298
f 301 302 303
f 303 302 301
f 304 305 306
f 306 305 304
f 307 308 309
f 309 308 307
f 310 311 312
f 312 311 310
f 313 314 315
f 315 314 313
f 316 317 318
f 318 317 316
f 319 320 321
f 321 320 319
f 322 323 324
f 324 323 322
f 325 326 327
f 327 326 325
f 328 329 330
f 330 329 328
f 331 332 333
f 333 332 331
f 334 335 336
f 336 335 334
f 337 338 339
f 339 338 337
f 340 341 342
f 342 341 340
f 343 344 345
f 345 344 343
f 346 347 348
f 348 347 346
f 349 350 351
f 351 350 349
f 352 353 354
f 354 353 352
f 355 356 357
f 357 356 355
f 358 359 360
f 360 359 358
f 361 362 363
f 363 362 361
f 364 365 366
f 366 365 364
f 367 368 369
f 369 368 367
f 370 371 372
f 372 371 370
f 373 374 375
f 375 374 373
f 376 377 378
f 378 377 376
f 379 380 381
f 381 380 379
f 382 383 384
f 384 383 382
f 385 386 387
f 387 386 385
f 388 389 390
f 390 389 388
f 391 392 393
f 393 392 391
f 394 395 396
f 396 395 394
f 397 398 399
f 399 398 397
f 400 401 402
f 402 401 400
f 403 404 405
f 405 404 403
f 406 407 408
f 408 407 406
f 409 410 411
f 411 410 409
f 412 413 414
f 414 413 412
f 415 416 417
f 417 416 415
f 418 419 420
f 420 419 418
f 421 422 423
f 423 422 421
f 424 425 426
f 426 425 424
f 427 428 429
f 429 428 427
f 430 431 432
f 432 431 430
f 433 434 435
f 435 434 433
f 436 437 438
f 438 437 436
f 439 440 441
f 441 440 439
f 442 443 444
f 444 443 442
f 445 446 447
f 447 446 445
f 448 449 450
f 450 449 448
f 451 452 453
f 453 452 451
f 454 455 456
f 456 455 454
f 457 458 459
f 459 458 457
f 460 461 462
f 462 461 460
f 463 464 465
f 465 464 463
f 466 467 468
f 468 467 466
f 469 470 471
f 471 470 469
f 472 473 474
f 474 473 472
f 475 476 477
f 477 476 475
f 478 479 480
f 480 479 478
f 481 482 483
f 483 482 481
f 484 485 486
f 486 485 484
f 487 488 489
f 489 488 487
f 490 491 492
f 492 491 490
f 493 494 495
f 495 494 493
f 496 497 498
f 498 497 496
f 499 500 501
f 501 500 499
f 502 503 504
f 504 503 502
f 505 506 507
f 507 506 505
f 508 509 510
f 510 509 508
f 511 512 513
f 513 512 511
f 514 515 516
f 516 515 514
f 517 518 519
f 519 518 517
f 520 521 522
f 522 521 520
f 523 524 525
f 525 524 523
f 526 527 528
f 528 527 526
f 529 530 531
f 531 530 529
f 532 533 534
f 534 533 532
f 535 536 537
f 537 536 535
f 538 539 540
f 540 539 538
f 541 542 543
f 543 542 541
f 544 545 546
f 546 545 544
f 547 548 549
f 549 548 547
f 550 551 552
f 552 551 550
f 553 554 555
f 555 554 553
f 556 557 558
f 558 557 556
f 559 560 561
f 561 560 559
f 562 563 564
f 564 563 562
f 565 566 567
f 567 566 565
f 568 569 570
f 570 569 568
f 571 572 573
f 573 572 571
f 574 575 576
f 576 575 574
f 577 578 579
f 579 578 577
f 580 581 582
f 582 581 580
f 583 584 585
f 585 584 583
f 586 587 588
f 588 587 586
f 589 590 591
f 591 590 589
f 592 593 594
f 594 593 592
f 595 596 597
f 597 596 595
f 598 599 600
f 600 599 598
f 601 602 603
f 603 602 601
f 604 605 606
f 606 605 604
f 607 608 609
f 609 608 607
f 610 611 612
f 612 611 610
f 613 614 615
f 615 614 613
f 616 617 618
f 618 617 616
f 619 620 621
f 621 620 619
f 622 623 624
f 624 623 622
f 625 626 627
f 627 626 625
f 628 629 630
f 630 629 628
f 631 632 633
f 633 632 631
f 634 635 636
f 636 635 634
f 637 638 639
f 639 638 637
f 640 641 642
f 642 641 640
f 643 644 645
f 645 644 643
f 646 647 648
f 648 647 646
f 649 650 651
f 651 650 649
f 652 653 654
f 654 653 652
f 655 656 657
f 657 656 655
f 658 659 660
f 660 659 658
f 661 662 663
f 663 662 661
f 664 665 666
f 666 665 664
f 667 668 669
f 669 668 667
f 670 671 672
f 672 671 670
f 673 674 675
f 675 674 673
f 676 677 678
f 678 677 676
f 679 680 681
f 681 680 679
f 682 683 684
f 684 683 682
f 685 686 687
f 687 686 685
f 688 689 690
f 690 689 688
f 691 692 693
f 693 692 691
f 694 695 696
f 696 695 694
f 697 698 699
f 699 698 697
f 700 701 702
f 702 701 700
f 703 704 705
f 705 704 703
f 706 707 708
f 708 707 706
f 709 710 711
f 711 710 709
f 712 713 714
f 714 713 712
f 715 716 717
f 717 716 715
f 718 719 720
f 720 719 718
f 721 722 723
f 723 722 721
f 724 725 726
f 726 725 724
f 727 728 729
f 729 728 727
f 730 731 732
f 732 731 730
f 733 734 735
f 735 734 733
f 736 737 738
f 738 737 736
f 739 740 741
f 741 740 739
f 742 743 744
f 744 743 742
f 745 746 747
f 747 746 745
f 748 749 750
f 750 749 748
f 751 752 753
f 753 752 751
f 754 755 756
f 756 755 754
f 757 758 759
f 759 758 757
f 760 761 762
f 762 761 760
f 763 764 765
f 765 764 763
f 766 767 768
f 768 767 766
f 769 770 771
f 771 770 769
f 772 773 774
f 774 773 772
f 775 776 777
f 777 776 775
f 778 779 780
f 780 779 778
f 781 782 783
f 783 782 781
f 784 785 786
f 786 785 784
f 787 788 789
f 789 788 787
f 790 791 792
f 792 791 790
f 793 794 795
f 795 794 793
f 796 797 798
f 798 797 796
f 799 800 801
f 801 800 799
