# Procedural Colin-style simulation prop, dimensions in meters
v -0.0270000 -0.0135000 0.2100000
v -0.0260000 -0.0135000 0.2260000
v -0.0180000 -0.0135000 0.2370000
v 0.0050000 -0.0135000 0.2400000
v 0.0470000 -0.0135000 0.2330000
v 0.0490000 -0.0135000 0.2160000
v 0.0260000 -0.0135000 0.2150000
v 0.0120000 -0.0135000 0.2070000
v -0.0090000 -0.0135000 0.2070000
v -0.0270000 0.0135000 0.2100000
v -0.0260000 0.0135000 0.2260000
v -0.0180000 0.0135000 0.2370000
v 0.0050000 0.0135000 0.2400000
v 0.0470000 0.0135000 0.2330000
v 0.0490000 0.0135000 0.2160000
v 0.0260000 0.0135000 0.2150000
v 0.0120000 0.0135000 0.2070000
v -0.0090000 0.0135000 0.2070000
f 9 1 2
f 11 10 18
f 3 9 2
f 11 18 12
f 4 9 3
f 12 18 13
f 8 9 4
f 13 18 17
f 7 8 4
f 13 17 16
f 5 7 4
f 13 16 14
f 6 7 5
f 14 16 15
f 1 2 11
f 1 11 10
f 2 3 12
f 2 12 11
f 3 4 13
f 3 13 12
f 4 5 14
f 4 14 13
f 5 6 15
f 5 15 14
f 6 7 16
f 6 16 15
f 7 8 17
f 7 17 16
f 8 9 18
f 8 18 17
f 9 1 10
f 9 10 18
